<svg width="14" height="16" viewBox="0 0 14 16" fill="none" xmlns="http://www.w3.org/2000/svg">
<path fill-rule="evenodd" clip-rule="evenodd" d="M0 1.90608C0 1.19832 0.572445 0.621582 1.28228 0.621582H9.85886C10.5687 0.621582 11.1411 1.19832 11.1411 1.90608V4.92315H12.7177C13.4276 4.92315 14 5.49989 14 6.20764V9.94945C14 10.5376 13.6008 11.0521 13.0291 11.1955L11.1411 11.6689V13.3769C11.1411 14.4806 10.2487 15.3783 9.14415 15.3783H1.997C0.892433 15.3783 0 14.4806 0 13.3769V1.90608ZM11.1411 10.4987L12.753 10.0944C12.8176 10.0782 12.8649 10.0192 12.8649 9.94945V6.20764C12.8649 6.1235 12.7973 6.05828 12.7177 6.05828H11.1411V10.4987ZM1.28228 1.75672C1.20267 1.75672 1.13514 1.82193 1.13514 1.90608V2.77236H10.006V1.90608C10.006 1.82193 9.93847 1.75672 9.85886 1.75672H1.28228ZM10.006 3.9075H1.13514V13.3769C1.13514 13.857 1.52266 14.2432 1.997 14.2432H9.14415C9.61848 14.2432 10.006 13.857 10.006 13.3769V3.9075ZM4.14114 6.357C4.4546 6.357 4.70871 6.61111 4.70871 6.92457V11.2261H3.57357V6.92457C3.57357 6.61111 3.82768 6.357 4.14114 6.357ZM7 6.357C7.31346 6.357 7.56757 6.61111 7.56757 6.92457V11.2261H6.43243V6.92457C6.43243 6.61111 6.68654 6.357 7 6.357Z" fill="white"/>
</svg>
