<svg width="16" height="16" viewBox="0 0 16 16" fill="none" xmlns="http://www.w3.org/2000/svg">
<path d="M1 5.86122V5.11122H0.25V5.86122H1ZM11.8889 5.86122H12.6389V5.11122H11.8889V5.86122ZM11.8889 5.889C11.4747 5.889 11.1389 6.22478 11.1389 6.639C11.1389 7.05321 11.4747 7.389 11.8889 7.389V5.889ZM15 6.639H15.75C15.75 6.22478 15.4142 5.889 15 5.889V6.639ZM13.6143 9.97708L13.9189 10.6624L13.6143 9.97708ZM11.1954 10.2314C10.8169 10.3996 10.6464 10.8429 10.8146 11.2214C10.9829 11.5999 11.4261 11.7704 11.8046 11.6021L11.1954 10.2314ZM1.77778 14.4446C1.36356 14.4446 1.02778 14.7803 1.02778 15.1946C1.02778 15.6088 1.36356 15.9446 1.77778 15.9446V14.4446ZM11.1111 15.9446C11.5253 15.9446 11.8611 15.6088 11.8611 15.1946C11.8611 14.7803 11.5253 14.4446 11.1111 14.4446V15.9446ZM3.86366 1.33599C4.15656 1.0431 4.15656 0.568227 3.86366 0.275334C3.57077 -0.0175592 3.0959 -0.0175592 2.803 0.275334L3.86366 1.33599ZM2.58333 4.30566C2.58333 4.71988 2.91912 5.05566 3.33333 5.05566C3.74755 5.05566 4.08333 4.71988 4.08333 4.30566H2.58333ZM6.97477 1.33599C7.26767 1.0431 7.26767 0.568227 6.97477 0.275334C6.68188 -0.0175592 6.20701 -0.0175592 5.91411 0.275334L6.97477 1.33599ZM5.69444 4.30566C5.69444 4.71988 6.03023 5.05566 6.44444 5.05566C6.85866 5.05566 7.19444 4.71988 7.19444 4.30566H5.69444ZM10.0859 1.33599C10.3788 1.0431 10.3788 0.568227 10.0859 0.275334C9.79299 -0.0175592 9.31812 -0.0175592 9.02523 0.275334L10.0859 1.33599ZM8.80556 4.30566C8.80556 4.71988 9.14134 5.05566 9.55556 5.05566C9.96977 5.05566 10.3056 4.71988 10.3056 4.30566H8.80556ZM1 6.61122H11.8889V5.11122H1V6.61122ZM11.1389 5.86122V8.97233H12.6389V5.86122H11.1389ZM7.22222 12.889H5.66667V14.389H7.22222V12.889ZM1.75 8.97233V5.86122H0.25V8.97233H1.75ZM5.66667 12.889C3.50355 12.889 1.75 11.1354 1.75 8.97233H0.25C0.25 11.9639 2.67512 14.389 5.66667 14.389V12.889ZM11.1389 8.97233C11.1389 11.1354 9.38534 12.889 7.22222 12.889V14.389C10.2138 14.389 12.6389 11.9639 12.6389 8.97233H11.1389ZM11.8889 7.389H15V5.889H11.8889V7.389ZM14.25 6.639V7.84485H15.75V6.639H14.25ZM13.3097 9.29172L11.1954 10.2314L11.8046 11.6021L13.9189 10.6624L13.3097 9.29172ZM14.25 7.84485C14.25 8.47056 13.8815 9.03759 13.3097 9.29172L13.9189 10.6624C15.0324 10.1676 15.75 9.06335 15.75 7.84485H14.25ZM1.77778 15.9446H11.1111V14.4446H1.77778V15.9446ZM2.803 0.275334C2.63122 0.447116 2.39594 0.731356 2.19884 1.07037C2.00795 1.3987 1.80556 1.85876 1.80556 2.36122H3.30556C3.30556 2.24146 3.36242 2.05337 3.4956 1.8243C3.62258 1.6059 3.77619 1.42347 3.86366 1.33599L2.803 0.275334ZM1.80556 2.36122C1.80556 3.00933 2.14209 3.482 2.32041 3.74947C2.53098 4.06533 2.58333 4.17599 2.58333 4.30566H4.08333C4.08333 3.65756 3.7468 3.18489 3.56848 2.91742C3.35791 2.60155 3.30556 2.49089 3.30556 2.36122H1.80556ZM5.91411 0.275334C5.74233 0.447116 5.50705 0.731356 5.30995 1.07037C5.11906 1.3987 4.91667 1.85876 4.91667 2.36122H6.41667C6.41667 2.24146 6.47353 2.05337 6.60671 1.8243C6.73369 1.6059 6.8873 1.42347 6.97477 1.33599L5.91411 0.275334ZM4.91667 2.36122C4.91667 3.00933 5.2532 3.482 5.43152 3.74947C5.64209 4.06533 5.69444 4.17599 5.69444 4.30566H7.19444C7.19444 3.65756 6.85791 3.18489 6.67959 2.91742C6.46902 2.60155 6.41667 2.49089 6.41667 2.36122H4.91667ZM9.02523 0.275334C8.85344 0.447116 8.61816 0.731356 8.42106 1.07037C8.23017 1.3987 8.02778 1.85876 8.02778 2.36122H9.52778C9.52778 2.24146 9.58465 2.05337 9.71782 1.8243C9.8448 1.6059 9.99841 1.42347 10.0859 1.33599L9.02523 0.275334ZM8.02778 2.36122C8.02778 3.00933 8.36432 3.482 8.54263 3.74947C8.7532 4.06533 8.80556 4.17599 8.80556 4.30566H10.3056C10.3056 3.65756 9.96902 3.18489 9.7907 2.91742C9.58013 2.60155 9.52778 2.49089 9.52778 2.36122H8.02778Z" fill="white"/>
</svg>
