<svg width="15" height="16" viewBox="0 0 15 16" fill="none" xmlns="http://www.w3.org/2000/svg">
<path fill-rule="evenodd" clip-rule="evenodd" d="M8.46361 2.32097C7.73493 1.8109 6.76507 1.8109 6.03639 2.32097L2.12942 5.05585C1.56368 5.45187 1.22674 6.09901 1.22674 6.78958V12.5962C1.22674 13.4054 1.8827 14.0614 2.69186 14.0614H11.8081C12.6173 14.0614 13.2733 13.4054 13.2733 12.5962V6.78958C13.2733 6.09901 12.9363 5.45187 12.3706 5.05585L8.46361 2.32097ZM5.47627 1.52079C6.54126 0.775298 7.95874 0.775296 9.02373 1.52079L12.9307 4.25567C13.7576 4.83447 14.25 5.78028 14.25 6.78958V12.5962C14.25 13.9448 13.1567 15.0381 11.8081 15.0381H2.69186C1.34326 15.0381 0.25 13.9448 0.25 12.5962V6.78958C0.25 5.78028 0.742443 4.83447 1.56929 4.25567L5.47627 1.52079ZM4.80814 11.6195C4.80814 11.3498 5.02679 11.1311 5.29651 11.1311H9.20349C9.47321 11.1311 9.69186 11.3498 9.69186 11.6195C9.69186 11.8892 9.47321 12.1079 9.20349 12.1079H5.29651C5.02679 12.1079 4.80814 11.8892 4.80814 11.6195Z" fill="white"/>
<path fill-rule="evenodd" clip-rule="evenodd" d="M5.3329 1.31598C6.48397 0.510234 8.01603 0.510232 9.1671 1.31598L13.0741 4.05086C13.9678 4.67644 14.5 5.6987 14.5 6.78958V12.5962C14.5 14.0829 13.2948 15.2881 11.8081 15.2881H2.69186C1.20519 15.2881 0 14.0829 0 12.5962V6.78958C0 5.6987 0.532246 4.67644 1.42593 4.05087L5.3329 1.31598ZM8.88037 1.7256C7.90146 1.04036 6.59854 1.04036 5.61963 1.7256L1.71266 4.46048C0.952641 4.99249 0.5 5.86186 0.5 6.78958V12.5962C0.5 13.8068 1.48133 14.7881 2.69186 14.7881H11.8081C13.0187 14.7881 14 13.8068 14 12.5962V6.78958C14 5.86186 13.5474 4.99249 12.7873 4.46048L8.88037 1.7256ZM8.32024 2.52578C7.67764 2.07596 6.82236 2.07596 6.17976 2.52578L2.27278 5.26066C1.77388 5.6099 1.47674 6.18058 1.47674 6.78958V12.5962C1.47674 13.2673 2.02077 13.8114 2.69186 13.8114H11.8081C12.4792 13.8114 13.0233 13.2673 13.0233 12.5962V6.78958C13.0233 6.18058 12.7261 5.60989 12.2272 5.26066L8.32024 2.52578ZM5.89303 2.11616C6.70778 1.54583 7.79221 1.54583 8.60697 2.11616L12.5139 4.85104C13.1465 5.29384 13.5233 6.01743 13.5233 6.78958V12.5962C13.5233 13.5435 12.7554 14.3114 11.8081 14.3114H2.69186C1.74463 14.3114 0.976744 13.5435 0.976744 12.5962V6.78958C0.976744 6.01743 1.35348 5.29384 1.98605 4.85105L5.89303 2.11616ZM4.55814 11.6195C4.55814 11.2117 4.88872 10.8811 5.29651 10.8811H9.20349C9.61128 10.8811 9.94186 11.2117 9.94186 11.6195C9.94186 12.0273 9.61128 12.3579 9.20349 12.3579H5.29651C4.88872 12.3579 4.55814 12.0273 4.55814 11.6195ZM5.29651 11.3811C5.16486 11.3811 5.05814 11.4878 5.05814 11.6195C5.05814 11.7511 5.16486 11.8579 5.29651 11.8579H9.20349C9.33514 11.8579 9.44186 11.7511 9.44186 11.6195C9.44186 11.4878 9.33514 11.3811 9.20349 11.3811H5.29651Z" fill="white"/>
</svg>
