<svg width="14" height="16" viewBox="0 0 14 16" fill="none" xmlns="http://www.w3.org/2000/svg">
<path fill-rule="evenodd" clip-rule="evenodd" d="M10.7797 1.83272C9.41878 1.88716 7.52176 2.42939 5.48145 4.4697C4.99623 4.95492 4.60424 5.49604 4.28792 6.04815L4.09351 6.38748L3.74326 6.2135C3.35816 6.02221 2.71533 5.87134 2.15463 6.05011C1.72998 6.18551 1.27317 6.53631 1.0255 7.40545C1.33071 7.34894 1.6339 7.29969 1.91783 7.2716C2.37883 7.22599 2.8673 7.22618 3.25322 7.40021L3.59113 7.55259L3.4777 7.90548C3.27964 8.52163 3.16473 9.06801 3.0995 9.45921C3.06954 9.63888 3.05015 9.78529 3.03801 9.89004L5.10801 11.96C5.19779 11.9496 5.31821 11.9339 5.46397 11.9107C5.80981 11.8558 6.29638 11.7594 6.85386 11.5941L7.25939 11.4739L7.37185 11.8816C7.53712 12.4808 7.61008 13.259 7.55467 13.9788C8.44227 13.7286 8.80121 13.2654 8.93981 12.835C9.12004 12.2754 8.97267 11.6367 8.78373 11.2541L8.61096 10.9043L8.94953 10.7103C9.50177 10.394 10.043 10.0019 10.5283 9.5166C12.5687 7.47628 13.1109 5.57927 13.1653 4.21838C13.1928 3.53254 13.0966 2.97253 12.9953 2.58736C12.9446 2.39486 12.8928 2.24656 12.8548 2.14877L12.8533 2.1448L12.8493 2.14325C12.7515 2.10526 12.6032 2.05344 12.4107 2.00278C12.0255 1.90142 11.4655 1.80529 10.7797 1.83272ZM13.1692 1.82888C13.5403 1.6433 13.5406 1.64384 13.5406 1.64384L13.5416 1.64596L13.5436 1.65002L13.5495 1.66227C13.5542 1.67228 13.5606 1.68593 13.5682 1.70314C13.5836 1.73754 13.6043 1.78619 13.6284 1.84827C13.6766 1.97237 13.7385 2.15051 13.7979 2.37615C13.9166 2.82723 14.0258 3.47026 13.9946 4.25155C13.9317 5.8249 13.3002 7.91845 11.1152 10.1034C10.6639 10.5547 10.1735 10.9304 9.67475 11.2431C9.84709 11.7484 9.94192 12.4307 9.72979 13.0894C9.44628 13.9698 8.65637 14.6877 7.12701 14.9153L6.5433 15.0021L6.65903 14.4234C6.77617 13.8377 6.76517 13.1115 6.66123 12.5082C6.24213 12.6157 5.87612 12.6856 5.59419 12.7304C5.40679 12.7602 5.25605 12.7789 5.15094 12.7904C5.09837 12.7961 5.05717 12.7999 5.02847 12.8024C5.01411 12.8037 5.00288 12.8046 4.9949 12.8052L4.9854 12.8059L4.98251 12.8061C4.98251 12.8061 4.98089 12.8062 4.95328 12.3922L4.98251 12.8061L4.79301 12.8187L2.17932 10.205L2.19184 10.0172L2.60589 10.0448C2.19184 10.0172 2.19184 10.0172 2.19184 10.0172L2.19197 10.0154L2.19219 10.0121L2.193 10.0014C2.19369 9.99239 2.19473 9.97964 2.19616 9.96334C2.19904 9.93075 2.20354 9.88394 2.21021 9.82428C2.22355 9.70499 2.24562 9.53413 2.28087 9.32271C2.33561 8.99439 2.4224 8.56675 2.5583 8.08162C2.4064 8.07092 2.22083 8.07561 1.99954 8.0975C1.57344 8.13966 1.08743 8.23645 0.574616 8.33901L0 8.45394L0.0823924 7.87376C0.300922 6.33497 1.01793 5.54144 1.90252 5.2594C2.56341 5.04868 3.24893 5.1473 3.75579 5.32203C4.0683 4.8237 4.44373 4.33372 4.8946 3.88285C7.07959 1.69786 9.17315 1.06639 10.7465 1.00346C11.5278 0.972204 12.1708 1.08147 12.6219 1.20018C12.8475 1.25955 13.0257 1.32143 13.1498 1.36963C13.2119 1.39375 13.2605 1.41448 13.2949 1.42981C13.3121 1.43748 13.3258 1.44381 13.3358 1.44854L13.348 1.45442L13.3521 1.45641L13.3536 1.45715C13.3536 1.45715 13.3547 1.45773 13.1692 1.82888ZM13.1692 1.82888L13.3536 1.45715L13.4785 1.51959L13.5406 1.64384L13.1692 1.82888ZM9.5894 5.40867C9.23288 5.05215 8.65485 5.05215 8.29833 5.40867C7.94181 5.76519 7.94181 6.34322 8.29833 6.69974C8.65485 7.05625 9.23288 7.05625 9.5894 6.69973C9.94592 6.34322 9.94592 5.76519 9.5894 5.40867ZM7.71148 4.82182C8.39211 4.14119 9.49562 4.14119 10.1762 4.82182C10.8569 5.50245 10.8569 6.60596 10.1762 7.28658C9.49562 7.96721 8.39211 7.96721 7.71148 7.28658C7.03086 6.60596 7.03086 5.50245 7.71148 4.82182ZM2.11629 10.8598C2.27834 11.0219 2.27834 11.2846 2.11629 11.4467L1.45234 12.1106C1.29029 12.2727 1.02755 12.2727 0.865494 12.1106C0.703441 11.9486 0.703441 11.6858 0.865494 11.5238L1.52944 10.8598C1.69149 10.6978 1.95423 10.6978 2.11629 10.8598ZM3.1122 11.8558C3.27426 12.0178 3.27426 12.2806 3.1122 12.4426L1.78431 13.7705C1.62226 13.9325 1.35952 13.9325 1.19747 13.7705C1.03541 13.6084 1.03541 13.3457 1.19747 13.1836L2.52535 11.8558C2.68741 11.6937 2.95015 11.6937 3.1122 11.8558ZM4.10812 12.8517C4.27017 13.0137 4.27017 13.2765 4.10812 13.4385L3.44417 14.1025C3.28212 14.2645 3.01938 14.2645 2.85732 14.1025C2.69527 13.9404 2.69527 13.6777 2.85732 13.5156L3.52127 12.8517C3.68332 12.6896 3.94606 12.6896 4.10812 12.8517Z" fill="white"/>
</svg>
