<svg width="14" height="14" viewBox="0 0 14 14" fill="none" xmlns="http://www.w3.org/2000/svg">
<path fill-rule="evenodd" clip-rule="evenodd" d="M0 4.06973C0 2.18168 1.53056 0.651123 3.4186 0.651123H10.5814C12.4694 0.651123 14 2.18168 14 4.06973V9.93019C14 11.8182 12.4694 13.3488 10.5814 13.3488H3.41861C1.53056 13.3488 0 11.8182 0 9.93019V4.06973ZM3.4186 1.62787C2.07 1.62787 0.976744 2.72113 0.976744 4.06973V9.93019C0.976744 11.2788 2.07 12.3721 3.41861 12.3721H10.5814C11.93 12.3721 13.0233 11.2788 13.0233 9.93019V4.06973C13.0233 2.72113 11.93 1.62787 10.5814 1.62787H3.4186ZM6.03024 4.91766C5.81329 4.78508 5.53488 4.94122 5.53488 5.19547V8.26181C5.53488 8.51607 5.81329 8.67221 6.03024 8.53963L8.9179 6.77494C8.92943 6.7679 8.93451 6.76114 8.93753 6.75554C8.94118 6.74877 8.94387 6.73949 8.94387 6.72864C8.94387 6.71779 8.94118 6.70852 8.93753 6.70175C8.93451 6.69614 8.92943 6.68938 8.9179 6.68234L6.03024 4.91766ZM4.55814 5.19547C4.55814 4.17845 5.67175 3.55389 6.53956 4.08422L9.42722 5.8489C10.0851 6.25092 10.0851 7.20636 9.42722 7.60838L6.53956 9.37306C5.67175 9.90339 4.55814 9.27884 4.55814 8.26181V5.19547ZM10.093 10.2558C10.093 9.98605 10.3117 9.7674 10.5814 9.7674H11.5581C11.8279 9.7674 12.0465 9.98605 12.0465 10.2558C12.0465 10.5255 11.8279 10.7441 11.5581 10.7441H10.5814C10.3117 10.7441 10.093 10.5255 10.093 10.2558Z" fill="white"/>
</svg>
