<svg width="15" height="14" viewBox="0 0 15 14" fill="none" xmlns="http://www.w3.org/2000/svg">
<path fill-rule="evenodd" clip-rule="evenodd" d="M10.0818 1.22276C10.2156 0.988578 10.5139 0.907217 10.7481 1.04104L12.4697 2.02479C12.953 2.30094 13.2803 2.78611 13.3555 3.33761L14.1453 9.12929C14.2136 9.38474 14.25 9.65321 14.25 9.93018C14.25 11.6384 12.8652 13.0232 11.157 13.0232C9.5014 13.0232 8.14962 11.7225 8.06787 10.0872C8.04243 10.0576 8.00764 10.0222 7.96236 9.98595C7.83922 9.88744 7.61974 9.76739 7.25 9.76739C6.88026 9.76739 6.66078 9.88744 6.53764 9.98595C6.49237 10.0222 6.45757 10.0576 6.43213 10.0872C6.35038 11.7225 4.9986 13.0232 3.34302 13.0232C1.63479 13.0232 0.25 11.6384 0.25 9.93018C0.25 9.65321 0.286405 9.38474 0.354692 9.1293L1.16089 3.21719C1.22297 2.7619 1.45771 2.34789 1.81652 2.06084L3.03794 1.08371C3.24856 0.915214 3.55588 0.949361 3.72438 1.15998C3.89287 1.37059 3.85872 1.67792 3.64811 1.84642L2.42669 2.82355C2.26359 2.95403 2.1569 3.14221 2.12867 3.34916L1.57764 7.39012C2.07824 7.04154 2.68676 6.83715 3.34302 6.83715C4.72538 6.83715 5.89593 7.744 6.29223 8.99523C6.54438 8.87495 6.86123 8.79064 7.25 8.79064C7.63877 8.79064 7.95562 8.87495 8.20777 8.99523C8.60407 7.744 9.77462 6.83715 11.157 6.83715C11.8132 6.83715 12.4218 7.04154 12.9224 7.39012L12.3877 3.46958C12.3536 3.2189 12.2048 2.99837 11.9851 2.87284L10.2635 1.88909C10.0293 1.75527 9.94797 1.45694 10.0818 1.22276ZM13.1869 9.32969C12.928 8.45338 12.1172 7.8139 11.157 7.8139C9.98819 7.8139 9.0407 8.76139 9.0407 9.93018C9.0407 11.099 9.98819 12.0465 11.157 12.0465C12.3153 12.0465 13.2562 11.1159 13.273 9.96164L13.1869 9.32969ZM1.22697 9.96164L1.31315 9.32968C1.57198 8.45338 2.38282 7.8139 3.34302 7.8139C4.51181 7.8139 5.4593 8.76139 5.4593 9.93018C5.4593 11.099 4.51181 12.0465 3.34302 12.0465C2.18474 12.0465 1.2438 11.1159 1.22697 9.96164Z" fill="white"/>
<path fill-rule="evenodd" clip-rule="evenodd" d="M9.86473 1.09873C10.067 0.744663 10.5181 0.621653 10.8721 0.823974L12.5937 1.80773C13.1445 2.12244 13.5175 2.67534 13.6032 3.30383L14.3909 9.08023C14.4621 9.35189 14.5 9.6368 14.5 9.93018C14.5 11.7765 13.0033 13.2732 11.157 13.2732C9.40026 13.2732 7.96015 11.9183 7.82441 10.1964C7.81865 10.1914 7.81258 10.1863 7.80618 10.1812C7.72424 10.1156 7.55908 10.0174 7.25 10.0174C6.94092 10.0174 6.77576 10.1156 6.69382 10.1812C6.68742 10.1863 6.68135 10.1914 6.67559 10.1964C6.53985 11.9183 5.09974 13.2732 3.34302 13.2732C1.49672 13.2732 0 11.7765 0 9.93018C0 9.6368 0.0378515 9.35189 0.109068 9.08023L0.91318 3.18341C0.983934 2.66455 1.25144 2.19275 1.66035 1.86562L2.88177 0.888489C3.2002 0.633744 3.66485 0.685372 3.9196 1.0038C4.17434 1.32224 4.12271 1.78689 3.80428 2.04163L2.58287 3.01876C2.46986 3.10917 2.39594 3.23955 2.37638 3.38294L1.89454 6.91647C2.3329 6.70543 2.82435 6.58715 3.34302 6.58715C4.74265 6.58715 5.94085 7.44712 6.43908 8.66697C6.67277 8.5889 6.9425 8.54064 7.25 8.54064C7.5575 8.54064 7.82723 8.5889 8.06092 8.66697C8.55915 7.44712 9.75735 6.58715 11.157 6.58715C11.6757 6.58715 12.1671 6.70543 12.6055 6.91647L12.14 3.50336C12.1164 3.32967 12.0133 3.17688 11.8611 3.08991L10.1395 2.10615C9.78542 1.90383 9.66241 1.45279 9.86473 1.09873ZM10.6241 1.2581C10.5098 1.19278 10.3642 1.23249 10.2988 1.3468C10.2335 1.4611 10.2732 1.60671 10.3875 1.67203L12.1091 2.65578C12.3963 2.81986 12.5908 3.10813 12.6355 3.4358L13.2471 7.92084L12.7795 7.59528C12.3195 7.27494 11.7605 7.08715 11.157 7.08715C9.88673 7.08715 8.81045 7.92038 8.44611 9.07072L8.35938 9.34453L8.10014 9.22087C7.8815 9.11658 7.60141 9.04064 7.25 9.04064C6.89859 9.04064 6.6185 9.11658 6.39986 9.22087L6.14062 9.34453L6.0539 9.07072C5.68955 7.92038 4.61327 7.08715 3.34302 7.08715C2.73948 7.08715 2.18054 7.27494 1.72049 7.59528L1.25295 7.92084L1.88097 3.31538C1.91786 3.04487 2.05733 2.79888 2.27052 2.62833L3.49193 1.6512C3.59473 1.56896 3.6114 1.41895 3.52916 1.31615C3.44692 1.21335 3.29691 1.19668 3.19411 1.27892L1.9727 2.25606C1.66398 2.50303 1.46201 2.85924 1.40859 3.25097L0.600273 9.17866L0.596211 9.19386C0.533504 9.42843 0.5 9.6752 0.5 9.93018C0.5 11.5003 1.77286 12.7732 3.34302 12.7732C4.86471 12.7732 6.10731 11.5776 6.18244 10.0747L6.18673 9.98902L6.2427 9.92403C6.27707 9.88412 6.32285 9.83763 6.38147 9.79073C6.5458 9.65927 6.81961 9.51739 7.25 9.51739C7.68039 9.51739 7.9542 9.65927 8.11853 9.79073C8.17715 9.83763 8.22293 9.88412 8.2573 9.92403L8.31327 9.98902L8.31756 10.0747C8.39269 11.5776 9.63529 12.7732 11.157 12.7732C12.7271 12.7732 14 11.5003 14 9.93018C14 9.6752 13.9665 9.42843 13.9038 9.19386L13.8997 9.17866L13.1078 3.37139C13.0431 2.89688 12.7614 2.47945 12.3457 2.24185L10.6241 1.2581ZM1.55821 9.38288L1.4773 9.97622C1.5017 10.9856 2.32769 11.7965 3.34302 11.7965C4.37374 11.7965 5.2093 10.9609 5.2093 9.93018C5.2093 8.89946 4.37374 8.0639 3.34302 8.0639C2.50307 8.0639 1.79212 8.61899 1.55821 9.38288ZM1.07339 9.25887C1.36275 8.27921 2.26903 7.5639 3.34302 7.5639C4.64988 7.5639 5.7093 8.62332 5.7093 9.93018C5.7093 11.237 4.64988 12.2965 3.34302 12.2965C2.04789 12.2965 0.995811 11.256 0.977 9.96529L0.976726 9.94649L1.06801 9.27708L1.07339 9.25887ZM11.157 8.0639C10.1263 8.0639 9.2907 8.89946 9.2907 9.93018C9.2907 10.9609 10.1263 11.7965 11.157 11.7965C12.1723 11.7965 12.9983 10.9856 13.0227 9.97621L12.9418 9.38289C12.7079 8.619 11.9969 8.0639 11.157 8.0639ZM8.7907 9.93018C8.7907 8.62332 9.85012 7.5639 11.157 7.5639C12.231 7.5639 13.1373 8.27921 13.4266 9.25887L13.432 9.27709L13.5233 9.94649L13.523 9.96528C13.5042 11.256 12.4521 12.2965 11.157 12.2965C9.85012 12.2965 8.7907 11.237 8.7907 9.93018Z" fill="white"/>
</svg>
