<svg width="18" height="16" viewBox="0 0 18 16" fill="none" xmlns="http://www.w3.org/2000/svg">
<path fill-rule="evenodd" clip-rule="evenodd" d="M12.7296 0.692889C13.5591 0.278149 14.5511 0.797926 14.6823 1.71599L15.2764 5.87473C15.2818 5.91254 15.2836 5.95019 15.2822 5.9873C15.7114 6.91558 15.9749 8.01589 16.0161 9.30094C16.5439 9.44852 17.0251 9.66558 17.3185 9.95903C17.5605 10.201 17.5605 10.5933 17.3185 10.8352C17.0766 11.0772 16.6843 11.0772 16.4423 10.8352C16.3898 10.7827 16.2377 10.684 15.9599 10.5829C15.9443 10.6952 15.9258 10.8057 15.9045 10.9143C16.5682 11.1887 17.0611 11.5494 17.3185 11.8069C17.5605 12.0488 17.5605 12.4411 17.3185 12.6831C17.0766 12.925 16.6843 12.925 16.4423 12.6831C16.305 12.5457 15.9845 12.3033 15.5269 12.1005C15.1432 12.9403 14.5518 13.6156 13.8067 14.1319C12.4612 15.0644 10.6571 15.4515 8.75 15.4515C6.84294 15.4515 5.03884 15.0644 3.6933 14.1319C2.94822 13.6156 2.35684 12.9403 1.97314 12.1005C1.51547 12.3033 1.19499 12.5457 1.05766 12.6831C0.815709 12.925 0.423422 12.925 0.181466 12.6831C-0.0604887 12.4411 -0.0604887 12.0488 0.181466 11.8069C0.438909 11.5494 0.931806 11.1887 1.59552 10.9143C1.57419 10.8057 1.55571 10.6952 1.54013 10.5829C1.26231 10.684 1.11018 10.7827 1.05766 10.8352C0.815709 11.0772 0.423422 11.0772 0.181466 10.8352C-0.0604887 10.5933 -0.0604887 10.201 0.181467 9.95903C0.47492 9.66558 0.956085 9.44852 1.48392 9.30094C1.52505 8.01589 1.78858 6.91558 2.21783 5.9873C2.21636 5.95019 2.21822 5.91254 2.22362 5.87473L2.81772 1.71599C2.94888 0.797926 3.94091 0.278149 4.77039 0.692889L7.54882 2.0821C7.56208 2.08873 7.57502 2.09579 7.58763 2.10325C7.98143 2.0446 8.37151 2.01669 8.75 2.01669C9.12849 2.01669 9.51857 2.0446 9.91238 2.10325C9.92498 2.09579 9.93792 2.08873 9.95118 2.0821L12.7296 0.692889ZM14.1873 1.78671C14.1044 1.20649 13.4774 0.877987 12.9532 1.1401L10.1748 2.52932L10.063 2.30571M4.54678 1.1401C4.02255 0.877987 3.39559 1.20649 3.3127 1.78671L2.71859 5.94544C2.71663 5.9592 2.71706 5.97224 2.71935 5.98445L2.73434 6.06433L2.69949 6.13776C2.26526 7.05256 1.99906 8.16484 1.97943 9.49871L1.97658 9.69191L1.78891 9.73786C1.74176 9.74941 1.69565 9.76134 1.65061 9.77362C1.1361 9.91394 0.742066 10.1055 0.53502 10.3126C0.488327 10.3593 0.488327 10.435 0.53502 10.4817C0.581713 10.5284 0.657418 10.5284 0.70411 10.4817C0.864138 10.3216 1.20049 10.1472 1.68702 10.0116L1.97647 9.93097L2.00314 10.2303C2.02756 10.5043 2.06967 10.7648 2.12816 11.0123L2.17921 11.2282L1.97085 11.3045C1.26927 11.5615 0.76431 11.9311 0.53502 12.1604C0.488327 12.2071 0.488327 12.2828 0.53502 12.3295C0.581713 12.3762 0.657418 12.3762 0.70411 12.3295C0.917341 12.1163 1.38205 11.7808 2.01859 11.542L2.24816 11.4559L2.33873 11.6837C2.67666 12.5339 3.24038 13.2097 3.9781 13.7209C5.20925 14.5741 6.8995 14.9515 8.75 14.9515C10.6005 14.9515 12.2908 14.5741 13.5219 13.7209C14.2596 13.2097 14.8233 12.5339 15.1613 11.6837L15.2518 11.4559L15.4814 11.542C16.1179 11.7808 16.5827 12.1163 16.7959 12.3295C16.8426 12.3762 16.9183 12.3762 16.965 12.3295C17.0117 12.2828 17.0117 12.2071 16.965 12.1604C16.7357 11.9311 16.2307 11.5615 15.5291 11.3045L15.3208 11.2282L15.3718 11.0123C15.4303 10.7648 15.4724 10.5043 15.4969 10.2303L15.5235 9.93097L15.813 10.0116C16.2995 10.1472 16.6359 10.3216 16.7959 10.4817C16.8426 10.5284 16.9183 10.5284 16.965 10.4817C17.0117 10.435 17.0117 10.3593 16.965 10.3126C16.7579 10.1055 16.3639 9.91394 15.8494 9.77362C15.8044 9.76134 15.7582 9.74941 15.7111 9.73786L15.5234 9.69191L15.5206 9.49871C15.5009 8.16484 15.2347 7.05255 14.8005 6.13776L14.7657 6.06433L14.7806 5.98445C14.7829 5.97223 14.7834 5.95919 14.7814 5.94544L14.1873 1.78671M4.54678 1.1401L7.32521 2.52932L4.54678 1.1401ZM4.21623 1.8012C4.14324 1.7647 4.05594 1.81044 4.0444 1.89123L3.76182 3.86926C3.81133 3.82413 3.8614 3.77988 3.91201 3.7365C4.49049 3.24066 5.13286 2.8643 5.79794 2.59205L4.21623 1.8012ZM3.54942 1.82052C3.60923 1.40189 4.0616 1.16487 4.43984 1.35399L7.09007 2.6791L6.50545 2.86628C5.70075 3.12392 4.91922 3.53171 4.23741 4.11613C4.01066 4.31048 3.79577 4.52366 3.59527 4.7564L3.03753 5.40376L3.54942 1.82052ZM13.4556 1.89123C13.4441 1.81045 13.3568 1.7647 13.2838 1.8012L11.7021 2.59205C12.3671 2.8643 13.0095 3.24067 13.588 3.7365C13.6386 3.77988 13.6887 3.82413 13.7382 3.86926L13.4556 1.89123ZM13.0602 1.35399C13.4384 1.16487 13.8908 1.40188 13.9506 1.82052L14.4625 5.40376L13.9047 4.7564C13.7042 4.52367 13.4893 4.31048 13.2626 4.11613C12.5808 3.53171 11.7992 3.12392 10.9946 2.86628L10.4099 2.6791L13.0602 1.35399ZM8.75 2.51669C8.36489 2.51669 7.96635 2.54759 7.56419 2.61292L7.44315 2.63258L7.35351 2.54889C7.34549 2.54142 7.33612 2.53477 7.32521 2.52932M8.75 2.51669C9.13511 2.51669 9.53366 2.54759 9.93581 2.61292L8.75 2.51669ZM10.1748 2.52932C10.1639 2.53477 10.1545 2.54142 10.1465 2.54889L10.0569 2.63258L9.93581 2.61292M8.75 3.25582C7.38973 3.25582 5.87882 3.6827 4.71842 4.67732C3.66911 5.57673 2.86045 6.97881 2.73449 9.07709C3.00118 9.05206 3.28254 9.03843 3.57609 9.03843C3.91826 9.03843 4.19565 9.31582 4.19565 9.658C4.19565 10.0002 3.91826 10.2776 3.57609 10.2776C3.28406 10.2776 3.00942 10.2931 2.75549 10.3203C2.76596 10.4079 2.77852 10.4936 2.79312 10.5775C3.04187 10.5387 3.30344 10.5167 3.57609 10.5167C3.91826 10.5167 4.19565 10.7941 4.19565 11.1363C4.19565 11.4784 3.91826 11.7558 3.57609 11.7558C3.44509 11.7558 3.31742 11.7626 3.19345 11.7751C3.48207 12.3213 3.89268 12.7625 4.3991 13.1134C5.46119 13.8495 6.9832 14.2123 8.75 14.2123C10.5168 14.2123 12.0388 13.8495 13.1009 13.1134C13.6073 12.7625 14.0179 12.3213 14.3066 11.7751C14.1826 11.7626 14.0549 11.7558 13.9239 11.7558C13.5817 11.7558 13.3043 11.4784 13.3043 11.1363C13.3043 10.7941 13.5817 10.5167 13.9239 10.5167C14.1966 10.5167 14.4581 10.5387 14.7069 10.5775C14.7215 10.4936 14.734 10.4079 14.7445 10.3203C14.4906 10.2931 14.2159 10.2776 13.9239 10.2776C13.5817 10.2776 13.3043 10.0002 13.3043 9.658C13.3043 9.31582 13.5817 9.03843 13.9239 9.03843C14.2175 9.03843 14.4988 9.05206 14.7655 9.07709C14.6396 6.97881 13.8309 5.57673 12.7816 4.67732C11.6212 3.6827 10.1103 3.25582 8.75 3.25582ZM4.39303 4.29769C5.6608 3.21103 7.29447 2.75582 8.75 2.75582C10.2055 2.75582 11.8392 3.21103 13.107 4.29769C14.3193 5.33685 15.208 6.96285 15.2781 9.35067L15.2867 9.64385L14.9959 9.60591C14.6664 9.56291 14.3069 9.53843 13.9239 9.53843C13.8579 9.53843 13.8043 9.59196 13.8043 9.658C13.8043 9.72403 13.8579 9.77756 13.9239 9.77756C14.3323 9.77756 14.7109 9.80614 15.052 9.85492L15.2831 9.88797L15.2659 10.1208C15.2452 10.4019 15.2053 10.6692 15.1473 10.9228L15.0927 11.1613L14.8531 11.1119C14.5633 11.0522 14.2524 11.0167 13.9239 11.0167C13.8579 11.0167 13.8043 11.0702 13.8043 11.1363C13.8043 11.2023 13.8579 11.2558 13.9239 11.2558C14.2052 11.2558 14.4725 11.2834 14.7229 11.3301L15.0276 11.387L14.9075 11.6728C14.5791 12.454 14.0511 13.0633 13.3857 13.5244C12.2092 14.3397 10.5734 14.7123 8.75 14.7123C6.92657 14.7123 5.29075 14.3397 4.11431 13.5244C3.4489 13.0633 2.92089 12.454 2.59252 11.6728L2.47243 11.387L2.7771 11.3301C3.02751 11.2834 3.2948 11.2558 3.57609 11.2558C3.64212 11.2558 3.69565 11.2023 3.69565 11.1363C3.69565 11.0702 3.64212 11.0167 3.57609 11.0167C3.24761 11.0167 2.93669 11.0522 2.64689 11.1119L2.40727 11.1613L2.35271 10.9228C2.29468 10.6692 2.25482 10.4019 2.23409 10.1208L2.21692 9.88797L2.44801 9.85492C2.78908 9.80614 3.16774 9.77756 3.57609 9.77756C3.64212 9.77756 3.69565 9.72403 3.69565 9.658C3.69565 9.59196 3.64212 9.53843 3.57609 9.53843C3.19309 9.53843 2.83365 9.56291 2.50409 9.60591L2.21325 9.64385L2.22186 9.35067C2.29197 6.96285 3.18068 5.33685 4.39303 4.29769ZM7.13927 8.35884C6.70105 7.70151 7.17227 6.82104 7.96228 6.82104H9.53772C10.3277 6.82104 10.799 7.70151 10.3607 8.35884L9.65817 9.41268C9.82124 9.57126 10.1693 9.77756 10.9674 9.77756C11.3096 9.77756 11.587 10.055 11.587 10.3971C11.587 10.7393 11.3096 11.0167 10.9674 11.0167C9.93155 11.0167 9.23045 10.7375 8.77386 10.2809C8.77364 10.2807 8.77408 10.2811 8.77386 10.2809C8.76999 10.2846 8.76544 10.2877 8.76153 10.2914C8.29108 10.7395 7.56534 11.0167 6.53261 11.0167C6.19043 11.0167 5.91304 10.7393 5.91304 10.3971C5.91304 10.055 6.19043 9.77756 6.53261 9.77756C7.27919 9.77756 7.66333 9.59674 7.85816 9.43718L7.13927 8.35884ZM7.52105 7.59903C7.45088 7.74528 7.45164 7.92601 7.5553 8.08149L8.34302 9.26308L8.13501 9.40175M7.52105 7.59903L8.55458 9.14932L8.98037 9.0969L9.97895 7.59903C10.0491 7.74528 10.0484 7.92601 9.9447 8.08149L9.15698 9.26308C9.15532 9.26557 9.15364 9.26804 9.15195 9.27049C9.14942 9.27414 9.14686 9.27774 9.14428 9.28128L9.03976 9.42444L9.14026 9.57044C9.18468 9.63499 9.23625 9.69798 9.2965 9.75823C9.57569 10.0374 10.0649 10.2776 10.9674 10.2776C11.0334 10.2776 11.087 10.3311 11.087 10.3971C11.087 10.4632 11.0334 10.5167 10.9674 10.5167C10.0217 10.5167 9.46396 10.2639 9.12741 9.92733C9.07085 9.87077 9.0211 9.8123 8.97717 9.75306L8.77935 9.48632L8.57772 9.75019C8.53119 9.81109 8.47781 9.87116 8.4167 9.92936C8.06503 10.2643 7.47768 10.5167 6.53261 10.5167C6.46657 10.5167 6.41304 10.4632 6.41304 10.3971C6.41304 10.3311 6.46657 10.2776 6.53261 10.2776C7.43567 10.2776 7.95688 10.0371 8.25178 9.7562C8.2988 9.71142 8.34061 9.66506 8.37764 9.61782L8.50155 9.45973L8.37386 9.30467C8.36313 9.29164 8.35282 9.27778 8.34302 9.26308L8.13501 9.40175M9.95815 7.56017L7.54185 7.56017C7.62461 7.42066 7.77541 7.32104 7.96228 7.32104H9.53772C9.72459 7.32104 9.87539 7.42066 9.95815 7.56017ZM8.42941 8.06017L8.75 8.54106L9.07059 8.06017H8.42941Z" fill="white"/>
</svg>
