<svg width="14" height="14" viewBox="0 0 14 14" fill="none" xmlns="http://www.w3.org/2000/svg">
<path fill-rule="evenodd" clip-rule="evenodd" d="M0 2.7675C0 1.77853 0.801723 0.976807 1.7907 0.976807H5.04651C5.84529 0.976807 6.55449 1.36035 7 1.95331C7.44551 1.36035 8.15471 0.976807 8.95349 0.976807H12.2093C13.1983 0.976807 14 1.77853 14 2.7675V11.2326C14 12.2216 13.1983 13.0233 12.2093 13.0233H1.7907C0.801723 13.0233 0 12.2216 0 11.2326V2.7675ZM6.51163 3.41867C6.51163 2.60951 5.85567 1.95355 5.04651 1.95355H1.7907C1.34116 1.95355 0.976744 2.31797 0.976744 2.7675V11.2326C0.976744 11.6822 1.34116 12.0466 1.7907 12.0466H6.51163V3.41867ZM7.48837 12.0466V3.41867C7.48837 2.60951 8.14433 1.95355 8.95349 1.95355H12.2093C12.6588 1.95355 13.0233 2.31797 13.0233 2.7675V11.2326C13.0233 11.6822 12.6588 12.0466 12.2093 12.0466H7.48837Z" fill="white"/>
</svg>
