<svg width="14" height="16" viewBox="0 0 14 16" fill="none" xmlns="http://www.w3.org/2000/svg">
<path fill-rule="evenodd" clip-rule="evenodd" d="M5.96204 2.35919C5.67125 2.11419 5.33537 1.99424 4.97676 2.08389C4.65985 2.16312 4.46187 2.40376 4.35061 2.80144C4.237 3.20752 4.24949 3.68053 4.30037 3.98579C4.33566 4.1975 4.24184 4.40995 4.06161 4.52649C3.88137 4.64303 3.64914 4.6414 3.47055 4.52234C3.30046 4.40895 3.15305 4.32613 2.98486 4.30234C2.83706 4.28144 2.60939 4.29811 2.27305 4.52234C2.05574 4.66721 1.93053 4.9576 1.92036 5.3796C1.91444 5.62514 1.95009 5.86314 1.996 6.04868H11.7741C11.8367 5.95425 11.8819 5.85031 11.8964 5.74818C11.9152 5.61683 11.8951 5.42327 11.6449 5.17301C11.1705 4.69858 10.7304 4.73164 10.5539 4.86405C10.3278 5.0336 10.0091 4.99955 9.82399 4.78608C9.63885 4.57261 9.65022 4.25234 9.85003 4.05253C9.92834 3.97422 10.0513 3.75229 10.0513 3.49097C10.0513 3.27054 9.96461 2.98846 9.57312 2.72746C9.17061 2.45912 8.74447 2.48363 8.3304 2.65694C7.89907 2.83749 7.5554 3.15429 7.43078 3.32046C7.30336 3.49035 7.08799 3.56948 6.8809 3.52251C6.6738 3.47553 6.51365 3.31122 6.472 3.10299C6.44075 2.94672 6.26857 2.61744 5.96204 2.35919ZM12.0209 7.1256C12.024 7.12563 12.0272 7.12563 12.0304 7.1256H12.9231V8.74098C12.9231 10.8227 11.2355 12.5102 9.15385 12.5102H4.84615C2.76447 12.5102 1.07692 10.8227 1.07692 8.74098V7.1256H1.60455C1.61204 7.12576 1.61954 7.12576 1.62705 7.1256H12.0209ZM0.896537 6.04868C0.85874 5.82891 0.838018 5.59146 0.843748 5.35365C0.857513 4.78249 1.03145 4.05578 1.67568 3.62629C2.20087 3.27616 2.69115 3.17317 3.13566 3.23603C3.15532 3.23881 3.17475 3.2419 3.19395 3.24528C3.20869 3.00592 3.24526 2.75523 3.31351 2.5113C3.48345 1.90386 3.88375 1.24708 4.71556 1.03912C5.50567 0.841595 6.18688 1.14043 6.65592 1.5356C6.85219 1.70096 7.02542 1.89451 7.16594 2.09671C7.3821 1.93413 7.63594 1.78017 7.91459 1.66353C8.54798 1.39841 9.37826 1.30326 10.1705 1.83141C10.8559 2.28837 11.1282 2.90372 11.1282 3.49097C11.1282 3.56831 11.1235 3.64463 11.1146 3.71947C11.5862 3.79528 12.0484 4.05349 12.4064 4.41151C12.8741 4.87921 13.0335 5.4036 12.9625 5.90047C12.9553 5.95101 12.9458 6.00043 12.9344 6.04868H14V8.74098C14 10.7143 12.8206 12.4121 11.1282 13.168V14.1256C11.1282 14.6212 10.7264 15.023 10.2308 15.023H3.76923C3.27359 15.023 2.87179 14.6212 2.87179 14.1256V13.168C1.17942 12.4121 0 10.7143 0 8.74098V6.04868H0.896537ZM3.94872 13.5871V13.9461H10.0513V13.5871H3.94872ZM5.18335 4.05254C5.39364 3.84226 5.73457 3.84226 5.94485 4.05254L6.30383 4.41152C6.51411 4.6218 6.51411 4.96273 6.30383 5.17302C6.09354 5.3833 5.75261 5.3833 5.54233 5.17302L5.18335 4.81404C4.97307 4.60376 4.97307 4.26283 5.18335 4.05254ZM7.69617 4.05254C7.90646 3.84226 8.24739 3.84226 8.45767 4.05254L8.81665 4.41152C9.02693 4.6218 9.02693 4.96273 8.81665 5.17302C8.60637 5.3833 8.26543 5.3833 8.05515 5.17302L7.69617 4.81404C7.48589 4.60376 7.48589 4.26283 7.69617 4.05254Z" fill="white"/>
</svg>
