<svg width="14" height="16" viewBox="0 0 14 16" fill="none" xmlns="http://www.w3.org/2000/svg">
<path fill-rule="evenodd" clip-rule="evenodd" d="M0 4.05137C0 2.16794 1.52682 0.641113 3.41026 0.641113H10.5897C12.4732 0.641113 14 2.16794 14 4.05137V11.9488C14 13.8322 12.4732 15.3591 10.5897 15.3591H3.41026C1.52682 15.3591 0 13.8322 0 11.9488V4.05137ZM3.41026 1.71804C2.12159 1.71804 1.07692 2.76271 1.07692 4.05137V11.9488C1.07692 13.2375 2.12159 14.2821 3.41026 14.2821H10.5897C11.8784 14.2821 12.9231 13.2375 12.9231 11.9488V4.05137C12.9231 2.76271 11.8784 1.71804 10.5897 1.71804H3.41026ZM6.63754 4.78613C6.35042 4.5244 5.86551 4.5244 5.5784 4.78613C5.32002 5.02166 5.32002 5.38106 5.5784 5.61659L7 6.9125L8.4216 5.61659C8.67998 5.38106 8.67998 5.02166 8.4216 4.78613C8.13449 4.5244 7.65015 4.5244 7.36304 4.78613L7.00029 5.11681L6.63754 4.78613ZM7.00027 3.7341C6.31983 3.37001 5.43963 3.4554 4.8529 3.99026C4.12596 4.65292 4.12596 5.74979 4.8529 6.41246L7 8.36973L9.14711 6.41246C9.87404 5.74979 9.87404 4.65292 9.14711 3.99026C8.56037 3.4554 7.68057 3.37001 7.00027 3.7341ZM3.58974 9.79496C3.58974 9.49758 3.83082 9.2565 4.12821 9.2565H9.87179C10.1692 9.2565 10.4103 9.49758 10.4103 9.79496C10.4103 10.0923 10.1692 10.3334 9.87179 10.3334H4.12821C3.83082 10.3334 3.58974 10.0923 3.58974 9.79496ZM5.02564 11.9488C5.02564 11.6514 5.26672 11.4103 5.5641 11.4103H8.4359C8.73328 11.4103 8.97436 11.6514 8.97436 11.9488C8.97436 12.2462 8.73328 12.4873 8.4359 12.4873H5.5641C5.26672 12.4873 5.02564 12.2462 5.02564 11.9488Z" fill="white"/>
</svg>
