<svg width="16" height="16" viewBox="0 0 16 16" fill="none" xmlns="http://www.w3.org/2000/svg">
<path fill-rule="evenodd" clip-rule="evenodd" d="M10.9767 1.86042C10.463 1.86042 10.0465 2.2769 10.0465 2.79065C10.0465 3.30441 10.463 3.72088 10.9767 3.72088C11.4905 3.72088 11.907 3.30441 11.907 2.79065C11.907 2.2769 11.4905 1.86042 10.9767 1.86042ZM8.93023 2.79065C8.93023 1.6604 9.84649 0.744141 10.9767 0.744141C12.107 0.744141 13.0233 1.6604 13.0233 2.79065C13.0233 3.92091 12.107 4.83716 10.9767 4.83716C9.84649 4.83716 8.93023 3.92091 8.93023 2.79065ZM6.14003 4.01037C7.01016 3.31427 8.27728 3.44225 8.99065 4.29828L11.5545 7.37487C11.5898 7.41729 11.6422 7.44181 11.6974 7.44181H13.2093C13.5176 7.44181 13.7674 7.6917 13.7674 7.99995C13.7674 8.30821 13.5176 8.55809 13.2093 8.55809H11.6974C11.3109 8.55809 10.9444 8.38642 10.6969 8.0895L9.41691 6.55348L8.17351 7.58965C8.09569 7.6545 8.08405 7.7697 8.14733 7.8488L9.09848 9.03774C9.23044 9.20268 9.30233 9.40762 9.30233 9.61885V12.9187C9.30233 13.3456 9.01182 13.7177 8.59771 13.8212L7.85352 14.0072C7.26641 14.154 6.69767 13.71 6.69767 13.1048V10.8038L4.42791 8.02968C3.70662 7.14811 3.84393 5.84725 4.73338 5.1357L6.14003 4.01037ZM8.70228 5.69593L8.1331 5.01291C7.80884 4.6238 7.23288 4.56563 6.83736 4.88204L5.43071 6.00736C5.02641 6.3308 4.964 6.9221 5.29186 7.32281L7.60368 10.1484C7.73966 10.3146 7.81395 10.5227 7.81395 10.7374V12.8665L8.18605 12.7735V9.68411L7.27567 8.54613C6.83269 7.99242 6.91413 7.18606 7.45888 6.7321L8.70228 5.69593ZM7.58278 12.9243C7.5827 12.9243 7.58287 12.9243 7.58278 12.9243V12.9243ZM3.16279 10.0465C2.03253 10.0465 1.11628 10.9627 1.11628 12.093C1.11628 13.2232 2.03253 14.1395 3.16279 14.1395C4.29305 14.1395 5.2093 13.2232 5.2093 12.093C5.2093 10.9627 4.29305 10.0465 3.16279 10.0465ZM0 12.093C0 10.3462 1.41603 8.93019 3.16279 8.93019C4.90955 8.93019 6.32558 10.3462 6.32558 12.093C6.32558 13.8397 4.90955 15.2558 3.16279 15.2558C1.41603 15.2558 0 13.8397 0 12.093ZM12.8372 10.0465C11.707 10.0465 10.7907 10.9627 10.7907 12.093C10.7907 13.2232 11.707 14.1395 12.8372 14.1395C13.9675 14.1395 14.8837 13.2232 14.8837 12.093C14.8837 10.9627 13.9675 10.0465 12.8372 10.0465ZM9.67442 12.093C9.67442 10.3462 11.0904 8.93019 12.8372 8.93019C14.584 8.93019 16 10.3462 16 12.093C16 13.8397 14.584 15.2558 12.8372 15.2558C11.0904 15.2558 9.67442 13.8397 9.67442 12.093Z" fill="white"/>
</svg>
