<svg width="14" height="14" viewBox="0 0 14 14" fill="none" xmlns="http://www.w3.org/2000/svg">
<path fill-rule="evenodd" clip-rule="evenodd" d="M0 3.41026C0 1.52682 1.52682 0 3.41026 0H10.5897C12.4732 0 14 1.52682 14 3.41026V10.5897C14 12.4732 12.4732 14 10.5897 14H3.41026C1.52682 14 0 12.4732 0 10.5897V3.41026ZM3.41026 1.07692C2.12159 1.07692 1.07692 2.12159 1.07692 3.41026V10.5897C1.07692 11.8784 2.12159 12.9231 3.41026 12.9231H10.5897C11.8784 12.9231 12.9231 11.8784 12.9231 10.5897V3.41026C12.9231 2.12159 11.8784 1.07692 10.5897 1.07692H3.41026ZM4.12821 2.51282C4.42559 2.51282 4.66667 2.7539 4.66667 3.05128V3.94872H5.5641C5.86149 3.94872 6.10256 4.1898 6.10256 4.48718C6.10256 4.78456 5.86149 5.02564 5.5641 5.02564H4.66667V5.92308C4.66667 6.22046 4.42559 6.46154 4.12821 6.46154C3.83082 6.46154 3.58974 6.22046 3.58974 5.92308V5.02564H2.69231C2.39492 5.02564 2.15385 4.78456 2.15385 4.48718C2.15385 4.1898 2.39492 3.94872 2.69231 3.94872H3.58974V3.05128C3.58974 2.7539 3.83082 2.51282 4.12821 2.51282ZM3.02951 10.209L10.209 3.02951C10.4193 2.81922 10.7602 2.81922 10.9705 3.02951C11.1808 3.23979 11.1808 3.58072 10.9705 3.79101L3.79101 10.9705C3.58072 11.1808 3.23979 11.1808 3.02951 10.9705C2.81922 10.7602 2.81922 10.4193 3.02951 10.209ZM7.89744 9.51282C7.89744 9.21544 8.13851 8.97436 8.4359 8.97436H11.3077C11.6051 8.97436 11.8462 9.21544 11.8462 9.51282C11.8462 9.8102 11.6051 10.0513 11.3077 10.0513H8.4359C8.13851 10.0513 7.89744 9.8102 7.89744 9.51282Z" fill="white"/>
</svg>
