<svg width="14" height="14" viewBox="0 0 14 14" fill="none" xmlns="http://www.w3.org/2000/svg">
<path d="M13.6719 6.79688C13.6719 5.95312 13.4948 5.16146 13.1406 4.42188C12.7969 3.67188 12.3229 3.02083 11.7188 2.46875C11.1146 1.90625 10.4062 1.46875 9.59375 1.15625C8.78125 0.833333 7.91667 0.671875 7 0.671875C6.08333 0.671875 5.21875 0.833333 4.40625 1.15625C3.59375 1.46875 2.88542 1.90625 2.28125 2.46875C1.67708 3.02083 1.19792 3.67188 0.84375 4.42188C0.5 5.16146 0.328125 5.95312 0.328125 6.79688C0.328125 7.33854 0.401042 7.85938 0.546875 8.35938C0.692708 8.84896 0.895833 9.3125 1.15625 9.75C1.41667 10.1875 1.72917 10.5938 2.09375 10.9688C2.46875 11.3333 2.88021 11.651 3.32812 11.9219L2.32812 14C2.32812 14 2.71875 13.9844 3.5 13.9531C4.28125 13.9115 5.20833 13.7865 6.28125 13.5781C7.35417 13.3594 8.44792 13.0208 9.5625 12.5625C10.6771 12.0938 11.5729 11.4375 12.25 10.5938H12.2344C12.6823 10.0729 13.0312 9.48958 13.2812 8.84375C13.5417 8.19792 13.6719 7.51562 13.6719 6.79688ZM4 8C3.71875 8 3.47917 7.90104 3.28125 7.70312C3.09375 7.50521 3 7.27083 3 7C3 6.72917 3.09375 6.49479 3.28125 6.29688C3.47917 6.09896 3.71875 6 4 6C4.28125 6 4.51562 6.09896 4.70312 6.29688C4.90104 6.49479 5 6.72917 5 7C5 7.27083 4.90104 7.50521 4.70312 7.70312C4.51562 7.90104 4.28125 8 4 8ZM7 8C6.71875 8 6.47917 7.90104 6.28125 7.70312C6.09375 7.50521 6 7.27083 6 7C6 6.72917 6.09375 6.49479 6.28125 6.29688C6.47917 6.09896 6.71875 6 7 6C7.28125 6 7.51562 6.09896 7.70312 6.29688C7.90104 6.49479 8 6.72917 8 7C8 7.27083 7.90104 7.50521 7.70312 7.70312C7.51562 7.90104 7.28125 8 7 8ZM10 8C9.71875 8 9.47917 7.90104 9.28125 7.70312C9.09375 7.50521 9 7.27083 9 7C9 6.72917 9.09375 6.49479 9.28125 6.29688C9.47917 6.09896 9.71875 6 10 6C10.2812 6 10.5156 6.09896 10.7031 6.29688C10.901 6.49479 11 6.72917 11 7C11 7.27083 10.901 7.50521 10.7031 7.70312C10.5156 7.90104 10.2812 8 10 8Z" fill="#858793"/>
</svg>
