<svg width="14" height="13" viewBox="0 0 14 13" fill="none" xmlns="http://www.w3.org/2000/svg">
<path d="M9.84375 0.328125C9.30208 0.328125 8.77604 0.458333 8.26562 0.71875C7.76562 0.979167 7.34375 1.33333 7 1.78125C6.65625 1.33333 6.22917 0.979167 5.71875 0.71875C5.21875 0.458333 4.69792 0.328125 4.15625 0.328125C3.66667 0.328125 3.20833 0.427083 2.78125 0.625C2.35417 0.822917 1.98438 1.09375 1.67188 1.4375C1.35938 1.78125 1.11458 2.18229 0.9375 2.64062C0.760417 3.09896 0.671875 3.59375 0.671875 4.125C0.671875 4.78125 0.796875 5.39583 1.04688 5.96875C1.30729 6.54167 1.67188 7.125 2.14062 7.71875C2.61979 8.30208 3.19271 8.92188 3.85938 9.57812C4.52604 10.224 5.26562 10.9531 6.07812 11.7656L7 12.6719L7.92188 11.75C8.73438 10.9479 9.47396 10.224 10.1406 9.57812C10.8073 8.92188 11.375 8.30208 11.8438 7.71875C12.3229 7.125 12.6875 6.54167 12.9375 5.96875C13.1979 5.39583 13.3281 4.78125 13.3281 4.125C13.3281 3.59375 13.2396 3.09896 13.0625 2.64062C12.8854 2.18229 12.6406 1.78125 12.3281 1.4375C12.0156 1.09375 11.6458 0.822917 11.2188 0.625C10.7917 0.427083 10.3333 0.328125 9.84375 0.328125Z" fill="#858793"/>
</svg>
