<svg width="12" height="12" viewBox="0 0 12 12" fill="none" xmlns="http://www.w3.org/2000/svg">
<path d="M8.67188 3C8.67188 3.73958 8.41146 4.36979 7.89062 4.89062C7.36979 5.41146 6.73958 5.67188 6 5.67188C5.26042 5.67188 4.63021 5.41146 4.10938 4.89062C3.58854 4.36979 3.32812 3.73958 3.32812 3C3.32812 2.26042 3.58854 1.63021 4.10938 1.10938C4.63021 0.588542 5.26042 0.328125 6 0.328125C6.73958 0.328125 7.36979 0.588542 7.89062 1.10938C8.41146 1.63021 8.67188 2.26042 8.67188 3ZM0.671875 11.6719C0.671875 10.8385 0.807292 10.0938 1.07812 9.4375C1.35938 8.78125 1.73958 8.22396 2.21875 7.76562C2.70833 7.29688 3.27604 6.94271 3.92188 6.70312C4.56771 6.45312 5.26042 6.32812 6 6.32812C6.73958 6.32812 7.43229 6.45312 8.07812 6.70312C8.72396 6.94271 9.28646 7.29688 9.76562 7.76562C10.2552 8.22396 10.6354 8.78125 10.9062 9.4375C11.1875 10.0938 11.3281 10.8385 11.3281 11.6719H0.671875Z" fill="#858793"/>
</svg>
