<svg width="20" height="15" viewBox="0 0 20 15" fill="none" xmlns="http://www.w3.org/2000/svg">
<path d="M15.8398 3.5C15.8398 4.42448 15.5143 5.21224 14.8633 5.86328C14.2122 6.51432 13.4245 6.83984 12.5 6.83984C11.5755 6.83984 10.7878 6.51432 10.1367 5.86328C9.48568 5.21224 9.16016 4.42448 9.16016 3.5C9.16016 2.57552 9.48568 1.78776 10.1367 1.13672C10.7878 0.485677 11.5755 0.160156 12.5 0.160156C13.4245 0.160156 14.2122 0.485677 14.8633 1.13672C15.5143 1.78776 15.8398 2.57552 15.8398 3.5ZM12.5 7.66016C11.5755 7.66016 10.7096 7.81641 9.90234 8.12891C9.09505 8.42839 8.38542 8.87109 7.77344 9.45703C7.17448 10.0299 6.69922 10.7266 6.34766 11.5469C6.00911 12.3672 5.83984 13.2982 5.83984 14.3398H19.1602C19.1602 13.2982 18.9844 12.3672 18.6328 11.5469C18.2943 10.7266 17.819 10.0299 17.207 9.45703C16.6081 8.87109 15.9049 8.42839 15.0977 8.12891C14.2904 7.81641 13.4245 7.66016 12.5 7.66016ZM7.5 6H5V3.5H3.33984V6H0.839844V7.66016H3.33984V10.1602H5V7.66016H7.5V6Z" fill="#5E5F68"/>
</svg>
