<svg width="12" height="12" viewBox="0 0 12 12" fill="none" xmlns="http://www.w3.org/2000/svg">
<g id="Camera">
<mask id="mask0_68_195" style="mask-type:alpha" maskUnits="userSpaceOnUse" x="0" y="0" width="12" height="12">
<g id="Shape">
<path d="M6 4.42773C4.98375 4.42773 4.125 5.28648 4.125 6.30273C4.125 7.31898 4.98375 8.17773 6 8.17773C7.01625 8.17773 7.875 7.31898 7.875 6.30273C7.875 5.28648 7.01625 4.42773 6 4.42773Z" fill="white"/>
<path d="M10.8 2.10274H9.2484L7.6242 0.478535C7.56858 0.422709 7.50246 0.378437 7.42966 0.348266C7.35686 0.318094 7.27881 0.302621 7.2 0.302735H4.8C4.72119 0.302621 4.64314 0.318094 4.57034 0.348266C4.49754 0.378437 4.43142 0.422709 4.3758 0.478535L2.7516 2.10274H1.2C0.5382 2.10274 0 2.64093 0 3.30274V9.90274C0 10.5645 0.5382 11.1027 1.2 11.1027H10.8C11.4618 11.1027 12 10.5645 12 9.90274V3.30274C12 2.64093 11.4618 2.10274 10.8 2.10274ZM6 9.30274C4.374 9.30274 3 7.92874 3 6.30274C3 4.67674 4.374 3.30274 6 3.30274C7.626 3.30274 9 4.67674 9 6.30274C9 7.92874 7.626 9.30274 6 9.30274Z" fill="white"/>
</g>
</mask>
<g mask="url(#mask0_68_195)">
<rect id="Fill" width="12" height="12" fill="white"/>
</g>
</g>
</svg>
