<svg width="21" height="20" viewBox="0 0 21 20" fill="none" xmlns="http://www.w3.org/2000/svg">
<path d="M19.0898 8.99609C19.0898 7.94141 18.8685 6.95182 18.4258 6.02734C17.9961 5.08984 17.4036 4.27604 16.6484 3.58594C15.8932 2.88281 15.0078 2.33594 13.9922 1.94531C12.9766 1.54167 11.8958 1.33984 10.75 1.33984C9.60417 1.33984 8.52344 1.54167 7.50781 1.94531C6.49219 2.33594 5.60677 2.88281 4.85156 3.58594C4.09635 4.27604 3.4974 5.08984 3.05469 6.02734C2.625 6.95182 2.41016 7.94141 2.41016 8.99609C2.41016 9.67318 2.5013 10.3242 2.68359 10.9492C2.86589 11.5612 3.11979 12.1406 3.44531 12.6875C3.77083 13.2344 4.16146 13.7422 4.61719 14.2109C5.08594 14.6667 5.60026 15.0638 6.16016 15.4023L4.91016 18C4.91016 18 5.39844 17.9805 6.375 17.9414C7.35156 17.8893 8.51042 17.7331 9.85156 17.4727C11.1927 17.1992 12.5599 16.776 13.9531 16.2031C15.3464 15.6172 16.4661 14.7969 17.3125 13.7422H17.293C17.8529 13.0911 18.2891 12.362 18.6016 11.5547C18.9271 10.7474 19.0898 9.89453 19.0898 8.99609ZM7 10.5C6.64844 10.5 6.34896 10.3763 6.10156 10.1289C5.86719 9.88151 5.75 9.58854 5.75 9.25C5.75 8.91146 5.86719 8.61849 6.10156 8.37109C6.34896 8.1237 6.64844 8 7 8C7.35156 8 7.64453 8.1237 7.87891 8.37109C8.1263 8.61849 8.25 8.91146 8.25 9.25C8.25 9.58854 8.1263 9.88151 7.87891 10.1289C7.64453 10.3763 7.35156 10.5 7 10.5ZM10.75 10.5C10.3984 10.5 10.099 10.3763 9.85156 10.1289C9.61719 9.88151 9.5 9.58854 9.5 9.25C9.5 8.91146 9.61719 8.61849 9.85156 8.37109C10.099 8.1237 10.3984 8 10.75 8C11.1016 8 11.3945 8.1237 11.6289 8.37109C11.8763 8.61849 12 8.91146 12 9.25C12 9.58854 11.8763 9.88151 11.6289 10.1289C11.3945 10.3763 11.1016 10.5 10.75 10.5ZM14.5 10.5C14.1484 10.5 13.849 10.3763 13.6016 10.1289C13.3672 9.88151 13.25 9.58854 13.25 9.25C13.25 8.91146 13.3672 8.61849 13.6016 8.37109C13.849 8.1237 14.1484 8 14.5 8C14.8516 8 15.1445 8.1237 15.3789 8.37109C15.6263 8.61849 15.75 8.91146 15.75 9.25C15.75 9.58854 15.6263 9.88151 15.3789 10.1289C15.1445 10.3763 14.8516 10.5 14.5 10.5Z" fill="white"/>
</svg>
