<svg width="22" height="20" viewBox="0 0 22 20" fill="none" xmlns="http://www.w3.org/2000/svg">
<path d="M11 0.0078125C9.625 0.0078125 8.32812 0.273438 7.10938 0.804688C5.89062 1.32031 4.82812 2.03125 3.92188 2.9375C3.01562 3.84375 2.29688 4.90625 1.76562 6.125C1.25 7.32812 0.992188 8.61719 0.992188 9.99219C0.992188 11.3828 1.25 12.6875 1.76562 13.9062C2.29688 15.1094 3.01562 16.1641 3.92188 17.0703C4.82812 17.9766 5.89062 18.6953 7.10938 19.2266C8.32812 19.7422 9.625 20 11 20C12.375 20 13.6719 19.7422 14.8906 19.2266C16.1094 18.6953 17.1719 17.9766 18.0781 17.0703C18.9844 16.1641 19.6953 15.1094 20.2109 13.9062C20.7422 12.6875 21.0078 11.3828 21.0078 9.99219C21.0078 8.61719 20.7422 7.32812 20.2109 6.125C19.6953 4.90625 18.9844 3.84375 18.0781 2.9375C17.1719 2.03125 16.1094 1.32031 14.8906 0.804688C13.6719 0.273438 12.375 0.0078125 11 0.0078125ZM10.9766 5C11.8047 5 12.5078 5.29687 13.0859 5.89062C13.6797 6.46875 13.9766 7.17188 13.9766 8C13.9766 8.82812 13.6797 9.53906 13.0859 10.1328C12.5078 10.7109 11.8047 11 10.9766 11C10.1484 11 9.4375 10.7109 8.84375 10.1328C8.26562 9.53906 7.97656 8.82812 7.97656 8C7.97656 7.17188 8.26562 6.46875 8.84375 5.89062C9.4375 5.29687 10.1484 5 10.9766 5ZM17.0234 15.2656C16.2891 16.1094 15.3984 16.7812 14.3516 17.2812C13.3203 17.7812 12.2031 18.0312 11 18.0312C9.79688 18.0312 8.67188 17.7891 7.625 17.3047C6.59375 16.8047 5.71094 16.1328 4.97656 15.2891C4.97656 15.2734 4.97656 15.2656 4.97656 15.2656C4.97656 15.2656 4.98438 15.2656 5 15.2656C5.64062 14.2812 6.48438 13.4922 7.53125 12.8984C8.57812 12.3047 9.73438 12.0078 11 12.0078C12.2656 12.0078 13.4219 12.3047 14.4688 12.8984C15.5156 13.4922 16.3672 14.2812 17.0234 15.2656C17.0234 15.25 17.0234 15.2422 17.0234 15.2422C17.0234 15.2422 17.0234 15.25 17.0234 15.2656Z" fill="#DCDCDC"/>
</svg>
