<svg width="24" height="27" viewBox="0 0 24 27" fill="none" xmlns="http://www.w3.org/2000/svg">
<path fill-rule="evenodd" clip-rule="evenodd" d="M11.9216 4.99961C12.1445 4.99961 12.3252 5.17144 12.3252 5.38341V6.69603C12.3252 6.908 12.1445 7.07983 11.9216 7.07983C11.6986 7.07983 11.5179 6.908 11.5179 6.69603V5.38341C11.5179 5.17144 11.6986 4.99961 11.9216 4.99961ZM7.13794 6.22789C7.3177 6.10253 7.5703 6.13949 7.70212 6.31042L8.44212 7.26993C8.57395 7.44087 8.53509 7.68105 8.35532 7.8064C8.17556 7.93175 7.92296 7.8948 7.79114 7.72387L7.05114 6.76436C6.91931 6.59342 6.95817 6.35324 7.13794 6.22789ZM16.5249 6.22789C16.7047 6.35324 16.7435 6.59342 16.6117 6.76436L15.8717 7.72387C15.7399 7.8948 15.4873 7.93175 15.3075 7.8064C15.1277 7.68105 15.0889 7.44087 15.2207 7.26993L15.9607 6.31042C16.0925 6.13949 16.3451 6.10253 16.5249 6.22789ZM11.9996 8.56644C9.24907 8.56644 7.02143 10.6846 7.02143 13.3V18.1616H16.9778V13.3C16.9778 10.6846 14.7501 8.56644 11.9996 8.56644ZM17.785 18.2318V13.3C17.785 10.2607 15.196 7.79883 11.9996 7.79883C8.80323 7.79883 6.21416 10.2607 6.21416 13.3V18.2312C5.37527 18.4265 4.67933 19.0182 4.39699 19.8236L4.04717 20.8215C3.84441 21.3999 4.29699 21.9996 4.94137 21.9996H19.0551C19.6991 21.9996 20.1517 21.4032 19.9496 20.8223L19.5995 19.8236C19.3175 19.0191 18.6227 18.4277 17.785 18.2318ZM11.8408 10.0172C11.8408 9.80525 12.0215 9.63341 12.2445 9.63341C14.3107 9.63341 15.9902 11.2304 15.9902 13.1951C15.9902 13.4071 15.8095 13.5789 15.5866 13.5789C15.3636 13.5789 15.1829 13.4071 15.1829 13.1951C15.1829 11.6544 13.8648 10.401 12.2445 10.401C12.0215 10.401 11.8408 10.2292 11.8408 10.0172ZM6.82231 18.9292C6.07012 18.9292 5.40112 19.3866 5.16283 20.0663L4.81302 21.0642C4.78436 21.146 4.84843 21.232 4.94137 21.232H19.0551C19.1485 21.232 19.2125 21.1479 19.1832 21.0635L18.8337 20.0663C18.5954 19.3866 17.9264 18.9292 17.1742 18.9292H6.82231Z" fill="#B3261E"/>
<path fill-rule="evenodd" clip-rule="evenodd" d="M11.3679 5.38341C11.3679 5.08157 11.623 4.84961 11.9216 4.84961C12.2201 4.84961 12.4752 5.08157 12.4752 5.38341V6.69603C12.4752 6.99787 12.2201 7.22983 11.9216 7.22983C11.623 7.22983 11.3679 6.99787 11.3679 6.69603V5.38341ZM11.9216 5.14961C11.7743 5.14961 11.6679 5.26132 11.6679 5.38341V6.69603C11.6679 6.81812 11.7743 6.92983 11.9216 6.92983C12.0688 6.92983 12.1752 6.81812 12.1752 6.69603V5.38341C12.1752 5.26132 12.0688 5.14961 11.9216 5.14961ZM7.05214 6.10485C7.29592 5.93486 7.63898 5.98293 7.8209 6.21881L8.5609 7.17833C8.74645 7.41891 8.68926 7.75641 8.44112 7.92944C8.19734 8.09943 7.85428 8.05136 7.67236 7.81547L6.93236 6.85596C6.74681 6.61537 6.804 6.27788 7.05214 6.10485ZM7.58334 6.40202C7.50161 6.29605 7.33948 6.27021 7.22373 6.35093C7.11235 6.4286 7.09181 6.57147 7.16992 6.67275L7.90991 7.63226C7.99165 7.73824 8.15378 7.76407 8.26953 7.68336C8.38091 7.60569 8.40145 7.46282 8.32334 7.36154L7.58334 6.40202ZM15.8419 6.21881C16.0238 5.98293 16.3669 5.93486 16.6107 6.10485C16.8588 6.27788 16.916 6.61537 16.7305 6.85596L15.9905 7.81547C15.8086 8.05136 15.4655 8.09943 15.2217 7.92944C14.9736 7.75641 14.9164 7.41891 15.1019 7.17833L15.8419 6.21881ZM16.4391 6.35093C16.3233 6.27021 16.1612 6.29605 16.0795 6.40202L15.3395 7.36154C15.2614 7.46282 15.2819 7.60569 15.3933 7.68336C15.509 7.76407 15.6712 7.73824 15.7529 7.63226L16.4929 6.67275C16.571 6.57147 16.5505 6.4286 16.4391 6.35093ZM6.06416 13.3C6.06416 10.1708 8.7276 7.64883 11.9996 7.64883C15.2716 7.64883 17.935 10.1708 17.935 13.3V18.1155C18.7673 18.348 19.4541 18.9554 19.7411 19.774L20.0912 20.7727C20.3307 21.4612 19.7913 22.1496 19.0551 22.1496H4.94137C4.20465 22.1496 3.6651 21.458 3.90562 20.7719L4.25544 19.774C4.54271 18.9545 5.23063 18.3467 6.06416 18.1147V13.3ZM11.9996 7.94883C8.87886 7.94883 6.36416 10.3506 6.36416 13.3V18.2312C6.36416 18.3009 6.3161 18.3615 6.24817 18.3773C5.45573 18.5617 4.80274 19.1196 4.53855 19.8732L4.18873 20.8711C4.02372 21.3418 4.38934 21.8496 4.94137 21.8496H19.0551C19.6068 21.8496 19.9725 21.3449 19.808 20.8717L19.458 19.8732C19.194 19.1204 18.5422 18.5629 17.7509 18.3779C17.683 18.362 17.635 18.3015 17.635 18.2318V13.3C17.635 10.3506 15.1203 7.94883 11.9996 7.94883ZM11.9996 8.71644C9.32471 8.71644 7.17143 10.7745 7.17143 13.3V18.0116H16.8278V13.3C16.8278 10.7745 14.6745 8.71644 11.9996 8.71644ZM6.87143 13.3C6.87143 10.5948 9.17344 8.41644 11.9996 8.41644C14.8257 8.41644 17.1278 10.5948 17.1278 13.3V18.1616C17.1278 18.2444 17.0606 18.3116 16.9778 18.3116H7.02143C6.93859 18.3116 6.87143 18.2444 6.87143 18.1616V13.3ZM11.6908 10.0172C11.6908 9.71538 11.9459 9.48341 12.2445 9.48341C14.3863 9.48341 16.1402 11.1406 16.1402 13.1951C16.1402 13.497 15.8851 13.7289 15.5866 13.7289C15.288 13.7289 15.0329 13.497 15.0329 13.1951C15.0329 11.7443 13.7892 10.551 12.2445 10.551C11.9459 10.551 11.6908 10.3191 11.6908 10.0172ZM12.2445 9.78341C12.0972 9.78341 11.9908 9.89512 11.9908 10.0172C11.9908 10.1393 12.0972 10.251 12.2445 10.251C13.9404 10.251 15.3329 11.5645 15.3329 13.1951C15.3329 13.3172 15.4393 13.4289 15.5866 13.4289C15.7339 13.4289 15.8402 13.3172 15.8402 13.1951C15.8402 11.3203 14.235 9.78341 12.2445 9.78341ZM6.82231 19.0792C6.12978 19.0792 5.52029 19.5001 5.30439 20.116L4.96574 21.082H19.0308L18.6921 20.116C18.4762 19.5001 17.8667 19.0792 17.1742 19.0792H6.82231ZM5.02128 20.0167C5.28196 19.2731 6.01046 18.7792 6.82231 18.7792H17.1742C17.986 18.7792 18.7145 19.2731 18.9752 20.0167L19.3248 21.0139C19.3914 21.206 19.2405 21.382 19.0551 21.382H4.94137C4.75623 21.382 4.60501 21.2042 4.67146 21.0146L5.02128 20.0167Z" fill="#B3261E"/>
</svg>
