<svg width="16" height="20" viewBox="0 0 16 20" fill="none" xmlns="http://www.w3.org/2000/svg">
<path d="M8 20C8.54688 20 9.01562 19.8047 9.40625 19.4141C9.79688 19.0234 9.99219 18.5547 9.99219 18.0078H6.00781C6.00781 18.5547 6.20312 19.0234 6.59375 19.4141C6.98438 19.8047 7.45312 20 8 20ZM15.9219 15.5938L15.0078 13.6016V10.3438V9.00781C15.0078 8.21094 14.8828 7.45312 14.6328 6.73438C14.3828 6.01562 14.0312 5.36719 13.5781 4.78906C13.1406 4.19531 12.6094 3.6875 11.9844 3.26562C11.375 2.82813 10.7109 2.5 9.99219 2.28125V2C9.99219 1.45312 9.79688 0.984375 9.40625 0.59375C9.01562 0.203125 8.54688 0.0078125 8 0.0078125C7.45312 0.0078125 6.98438 0.203125 6.59375 0.59375C6.20312 0.984375 6.00781 1.45312 6.00781 2V2.28125C5.28906 2.5 4.61719 2.82813 3.99219 3.26562C3.38281 3.6875 2.85156 4.19531 2.39844 4.78906C1.96094 5.36719 1.61719 6.01562 1.36719 6.73438C1.11719 7.45312 0.992188 8.21094 0.992188 9.00781V10.3438V13.6016L0.078125 15.5938C0.0625 15.6562 0.046875 15.7266 0.03125 15.8047C0.015625 15.8672 0.0078125 15.9297 0.0078125 15.9922C0.0078125 16.2734 0.101562 16.5156 0.289062 16.7188C0.492188 16.9062 0.726562 17 0.992188 17H15.0078C15.2734 17 15.5 16.9062 15.6875 16.7188C15.8906 16.5156 15.9922 16.2734 15.9922 15.9922C15.9922 15.9297 15.9844 15.8672 15.9688 15.8047C15.9531 15.7266 15.9375 15.6562 15.9219 15.5938ZM9.99219 15.0078H2.5625L2.82031 14.4219L3.00781 14.0234V10.3438V9.00781V8.91406C3.02344 8.22656 3.16406 7.58594 3.42969 6.99219C3.69531 6.39844 4.04688 5.88281 4.48438 5.44531C4.9375 4.99219 5.46094 4.64062 6.05469 4.39062C6.66406 4.125 7.3125 3.99219 8 3.99219C8.6875 3.99219 9.32812 4.125 9.92188 4.39062C10.5312 4.64062 11.0547 4.99219 11.4922 5.44531C11.9453 5.88281 12.3047 6.39844 12.5703 6.99219C12.8359 7.58594 12.9766 8.22656 12.9922 8.91406V9.00781V10.3438V14.0234L13.4375 15.0078H9.99219Z" fill="black"/>
</svg>
