<svg width="14" height="14" viewBox="0 0 14 14" fill="none" xmlns="http://www.w3.org/2000/svg">
<path id="Vector" d="M3.18346 13.9311C2.8423 14.1468 2.42353 13.8233 2.5139 13.4139L3.45457 9.15185C3.49274 8.97891 3.43681 8.79786 3.30946 8.68215L0.157531 5.81821C-0.145166 5.54317 0.0148078 5.01834 0.412367 4.98217L4.58693 4.60239C4.75278 4.5873 4.89724 4.47665 4.96256 4.31468L6.58578 0.289462C6.74142 -0.0964879 7.25857 -0.0964869 7.41421 0.289463L9.03744 4.31468C9.10276 4.47665 9.24722 4.5873 9.41307 4.60239L13.5876 4.98217C13.9852 5.01834 14.1452 5.54317 13.8425 5.81821L10.6905 8.68215C10.5632 8.79786 10.5073 8.97891 10.5454 9.15185L11.4861 13.4139C11.5765 13.8233 11.1577 14.1468 10.8165 13.9311L7.23102 11.6643C7.08874 11.5743 6.91125 11.5743 6.76898 11.6643L3.18346 13.9311Z" fill="white"/>
</svg>
