<svg width="20" height="20" viewBox="0 0 20 20" fill="none" xmlns="http://www.w3.org/2000/svg">
<path id="Vector" d="M0 14.8328V1.32453C0 0.981577 0.130688 0.675086 0.392063 0.405051C0.653395 0.135017 0.961269 0 1.31568 0H13.2134C13.5824 0 13.8979 0.133136 14.1602 0.399407C14.4224 0.665663 14.5535 0.975991 14.5535 1.33039V9.65945C14.5535 10.0157 14.4207 10.3264 14.1551 10.5913C13.8895 10.8562 13.5764 10.9886 13.2158 10.9886H3.85153L0 14.8328ZM5.60794 16.2882C5.23794 16.2882 4.92498 16.1505 4.66906 15.8751C4.41316 15.5997 4.2852 15.2866 4.2852 14.9357V12.4587H16.0236V4.29991H18.525C18.8752 4.29991 19.1804 4.43549 19.4406 4.70666C19.7009 4.97781 19.831 5.29059 19.831 5.64501V20L16.1191 16.2882H5.60794Z" fill="#AEAFB3"/>
</svg>
