<svg width="31" height="30" viewBox="0 0 31 30" fill="none" xmlns="http://www.w3.org/2000/svg">
<g id="person_FILL1_wght700_GRAD200_opsz40">
<path id="Vector" d="M15.4051 14.7716C13.9791 14.7716 12.8075 14.3084 11.8901 13.3822C10.9728 12.4559 10.5141 11.2857 10.5141 9.87152C10.5141 8.4574 10.9714 7.29195 11.8858 6.37517C12.8003 5.45839 13.9705 5 15.3965 5C16.8224 5 17.9983 5.45738 18.924 6.37213C19.8497 7.2869 20.3126 8.45784 20.3126 9.88495C20.3126 11.2901 19.8512 12.4559 18.9283 13.3822C18.0054 14.3084 16.831 14.7716 15.4051 14.7716ZM6 25V21.5017C6 20.6972 6.20734 19.9876 6.62201 19.3728C7.03666 18.758 7.5787 18.2901 8.24811 17.9691C9.45426 17.3839 10.6473 16.951 11.8273 16.6704C13.0073 16.3898 14.1958 16.2494 15.3928 16.2494C16.6241 16.2494 17.8236 16.3957 18.9912 16.6883C20.1587 16.9809 21.3426 17.4048 22.5428 17.9601C23.2273 18.2647 23.7791 18.7253 24.1982 19.3421C24.6172 19.9588 24.8267 20.677 24.8267 21.4965V25H6Z" fill="#AEAFB3"/>
</g>
</svg>
