<svg width="37" height="36" viewBox="0 0 37 36" fill="none" xmlns="http://www.w3.org/2000/svg">
<g id="add_circle_FILL1_wght700_GRAD200_opsz48 1">
<path id="Vector" d="M17.2984 25.6508H19.8859V19.4258H26.1484V16.8383H19.8859V10.3508H17.2984V16.8383H10.8484V19.4258H17.2984V25.6508ZM18.4964 33.7883C16.3201 33.7883 14.2682 33.3807 12.3409 32.5656C10.4136 31.7506 8.73426 30.6274 7.30304 29.1962C5.87181 27.765 4.74866 26.0848 3.93359 24.1558C3.11849 22.2268 2.71094 20.1706 2.71094 17.9872C2.71094 15.8065 3.11921 13.7573 3.93576 11.8397C4.75234 9.92203 5.87988 8.24387 7.31838 6.80519C8.75688 5.36652 10.435 4.23528 12.3528 3.41148C14.2706 2.58768 16.3171 2.17578 18.4923 2.17578C20.6765 2.17578 22.7333 2.58651 24.6627 3.40796C26.5921 4.22941 28.2721 5.35762 29.7027 6.79259C31.1334 8.22757 32.2611 9.90899 33.0861 11.8369C33.911 13.7647 34.3234 15.8228 34.3234 18.0111C34.3234 20.1978 33.9115 22.2464 33.0877 24.1567C32.2639 26.0671 31.1327 27.7393 29.694 29.1735C28.2554 30.6077 26.5751 31.7354 24.6532 32.5565C22.7314 33.3777 20.6791 33.7883 18.4964 33.7883Z" fill="black"/>
</g>
</svg>
