<svg width="35" height="34" viewBox="0 0 35 34" fill="none" xmlns="http://www.w3.org/2000/svg">
<g id="manage_search_FILL1_wght700_GRAD-25_opsz40">
<path id="Vector" d="M3 26.5158V23.1684H16.4737V26.5158H3ZM3 19.6105V16.2632H10.9474V19.6105H3ZM3 12.6842V9.3158H10.9474V12.6842H3ZM28.9053 25.8421L23.8446 20.7895C23.2942 21.2105 22.7001 21.5105 22.0623 21.6895C21.4244 21.8684 20.7786 21.9579 20.1247 21.9579C18.1786 21.9579 16.5257 21.278 15.166 19.9183C13.8062 18.5586 13.1263 16.9142 13.1263 14.985C13.1263 13.0758 13.8047 11.4343 15.1614 10.0606C16.5182 8.68685 18.1637 8 20.098 8C22.0124 8 23.6554 8.68645 25.0269 10.0594C26.3984 11.4322 27.0842 13.0756 27.0842 14.9895C27.0842 15.6632 26.9877 16.3211 26.7948 16.9632C26.6018 17.6053 26.3123 18.1881 25.9263 18.7118L31 23.8106L28.9053 25.8421ZM20.1133 19C21.2085 19 22.1529 18.6042 22.9465 17.8124C23.7401 17.0207 24.1369 16.0768 24.1369 14.9808C24.1369 13.8848 23.7417 12.9386 22.9514 12.1421C22.1611 11.3456 21.212 10.9474 20.104 10.9474C18.9961 10.9474 18.0526 11.3454 17.2737 12.1415C16.4947 12.9376 16.1053 13.8867 16.1053 14.9889C16.1053 16.091 16.498 17.0351 17.2835 17.8211C18.069 18.6071 19.0123 19 20.1133 19Z" fill="#AEAFB3"/>
</g>
</svg>
