<svg width="24" height="24" viewBox="0 0 24 24" fill="none" xmlns="http://www.w3.org/2000/svg">
<path fill-rule="evenodd" clip-rule="evenodd" d="M21 12.2048C21.0003 11.5872 20.9444 10.9709 20.833 10.3631H12.183V13.8446H17.1257C17.0231 14.3947 16.8079 14.9188 16.4929 15.3851C16.178 15.8514 15.7699 16.2504 15.2933 16.5579V18.8167H18.2617C19.9981 17.2498 21 14.9418 21 12.2031V12.2048Z" fill="#3E82F1"/>
<path fill-rule="evenodd" clip-rule="evenodd" d="M12.183 21C14.6634 21 16.7416 20.1945 18.2617 18.8201L15.2976 16.5613C14.4757 17.1014 13.4236 17.421 12.1873 17.421C9.79593 17.421 7.77487 15.8372 7.04899 13.7098H3.97674V16.0423C4.74089 17.5332 5.91307 18.7865 7.36227 19.662C8.81146 20.5375 10.4805 21.0008 12.183 21Z" fill="#32A753"/>
<path fill-rule="evenodd" clip-rule="evenodd" d="M7.04466 13.7098C6.66052 12.601 6.66052 11.399 7.04466 10.2902V7.95766H3.97674C3.33446 9.2122 3 10.5964 3 12C3 13.4036 3.33446 14.7878 3.97674 16.0423L7.04466 13.7098Z" fill="#F9BB00"/>
<path fill-rule="evenodd" clip-rule="evenodd" d="M12.183 6.57898C13.5318 6.57898 14.7422 7.03345 15.6939 7.92544L18.3257 5.34359C16.7347 3.89114 14.6565 3 12.183 3C10.4805 2.99925 8.81146 3.46252 7.36227 4.33803C5.91307 5.21353 4.74089 6.46677 3.97674 7.95766L7.04466 10.2902C7.76709 8.16285 9.7916 6.57898 12.183 6.57898Z" fill="#E74133"/>
</svg>
