<svg width="121" height="84" viewBox="0 0 121 84" fill="none" xmlns="http://www.w3.org/2000/svg">
<path d="M16.6549 21.9604C20.7182 23.6258 24.8415 25.136 29.0249 26.479C29.529 26.6402 29.7391 25.8523 29.2409 25.6911C25.0576 24.3481 20.9343 22.8439 16.871 21.1725C16.3848 20.9696 16.1747 21.7635 16.6549 21.9604Z" fill="black"/>
<path d="M5.39613 33.3503C12.7665 33.4518 20.1429 33.5473 27.5132 33.6488C28.0414 33.6547 28.0414 32.8429 27.5132 32.831C20.1429 32.7295 12.7665 32.634 5.39613 32.5325C4.86796 32.5266 4.86796 33.3443 5.39613 33.3503Z" fill="black"/>
<path d="M17.4775 42.4165C20.6225 41.8972 23.7736 41.3838 26.9186 40.8645C27.4407 40.7809 27.2127 39.993 26.6965 40.0766C23.5515 40.5959 20.4005 41.1092 17.2555 41.6285C16.7333 41.7121 16.9614 42.5 17.4775 42.4165Z" fill="black"/>
<path d="M87.5979 27.5111C89.8666 26.7291 92.1174 25.8994 94.3441 25.01C94.8302 24.819 94.6142 24.0311 94.122 24.2221C91.8953 25.1115 89.6446 25.9412 87.3758 26.7232C86.8777 26.8963 87.0938 27.6842 87.5979 27.5111Z" fill="black"/>
<path d="M89.3515 33.2544C94.4351 32.8187 99.5247 32.3829 104.608 31.9472C105.131 31.8994 105.131 31.0876 104.608 31.1294C99.5247 31.5651 94.4351 32.0009 89.3515 32.4366C88.8293 32.4844 88.8293 33.2962 89.3515 33.2544Z" fill="black"/>
<path d="M88.1864 40.566C90.5811 40.948 92.9759 41.33 95.3647 41.7121C95.8809 41.7956 96.1029 41.0077 95.5808 40.9241C93.186 40.5421 90.7912 40.1601 88.4024 39.7781C87.8863 39.6945 87.6642 40.4824 88.1864 40.566Z" fill="black"/>
<path d="M88.509 47.3825C89.4633 48.1585 90.4237 48.9405 91.378 49.7165C91.7861 50.0448 92.3623 49.4717 91.9541 49.1375C90.9998 48.3615 90.0395 47.5795 89.0852 46.8036C88.6771 46.4753 88.1009 47.0483 88.509 47.3825Z" fill="black"/>
<path d="M22.8862 50.1636C25.0289 49.3339 27.1656 48.5102 29.3083 47.6804C29.7944 47.4894 29.5784 46.7015 29.0862 46.8925C26.9435 47.7222 24.8068 48.546 22.6642 49.3757C22.178 49.5667 22.3941 50.3546 22.8862 50.1636Z" fill="black"/>
<path d="M43.737 25.5536C42.498 28.3151 41.7911 31.2506 41.8276 34.2875C41.864 37.5636 42.7167 40.8035 43.358 43.9926C43.8827 46.6019 44.0212 49.6388 46.2149 51.4726C48.2992 53.2121 51.1051 53.3571 53.6996 53.1686C54.4429 53.1179 54.4502 51.9582 53.6996 52.0089C51.0176 52.2046 47.7453 52.0669 46.0691 49.6171C44.7573 47.6964 44.6553 44.529 44.2034 42.2966C43.0738 36.6939 42.3304 31.5333 44.75 26.1335C45.0561 25.4594 44.0504 24.8723 43.7443 25.5464L43.737 25.5536Z" fill="black"/>
<path d="M49.5746 52.7265C50.0192 53.8572 50.4637 54.9879 50.9083 56.1113C51.1779 56.7999 52.3076 56.4955 52.0306 55.8069L50.6969 52.4221C50.4273 51.7335 49.2977 52.0379 49.5746 52.7265Z" fill="black"/>
<path d="M59.9088 49.994C61.6579 48.9285 63.0645 47.4427 63.9901 45.6162C64.3253 44.9566 63.3269 44.3695 62.9843 45.0291C62.1389 46.6816 60.9073 48.0225 59.3185 48.9865C58.6772 49.3707 59.2675 50.3781 59.9088 49.9867V49.994Z" fill="black"/>
<path d="M62.671 51.4363C64.3545 50.7405 65.8193 49.7186 67.0073 48.3342C67.4956 47.7688 66.672 46.9498 66.1837 47.5152C65.1343 48.7328 63.8516 49.6968 62.3576 50.3201C61.6798 50.6028 61.9786 51.7263 62.6637 51.4363H62.671Z" fill="black"/>
<path d="M71.38 43.1156C70.7314 45.435 69.558 47.4789 67.8672 49.2039C67.3425 49.7403 68.166 50.5593 68.6908 50.023C70.5127 48.1602 71.8027 45.9278 72.5023 43.4273C72.7064 42.7097 71.5841 42.4053 71.38 43.1229V43.1156Z" fill="black"/>
<path d="M69.9078 44.0289C70.3816 43.3113 70.9792 41.9269 71.8319 41.6008C72.2764 41.4268 73.1364 41.5935 73.6465 41.4993C74.7835 41.2891 75.8693 40.818 76.7803 40.1004C78.7116 38.5783 79.6955 35.9038 80.2348 33.5917C80.6211 31.9391 80.5555 29.2066 78.3764 28.8587C76.3431 28.5326 74.2441 30.3591 73.1364 31.8159C72.6845 32.4103 73.6903 32.9829 74.1421 32.403C74.7689 31.5912 75.5268 30.9099 76.4597 30.4605C76.7585 30.3446 77.0646 30.2286 77.3634 30.1126C78.012 30.7142 78.6606 31.3231 79.3019 31.9247C79.4404 32.3523 79.1562 33.1568 79.0469 33.5917C78.5513 35.5487 77.7278 37.8173 76.1244 39.1292C75.3373 39.7743 74.4191 40.1802 73.4133 40.3541C72.7355 40.4773 71.81 40.2671 71.1759 40.5136C70.1411 40.9122 69.4779 42.5865 68.9094 43.449C68.5013 44.0723 69.507 44.6522 69.9151 44.0361L69.9078 44.0289Z" fill="black"/>
<path d="M78.2962 32.2871C78.5003 32.4248 78.1723 31.9681 78.0703 31.8522C77.91 31.671 77.7059 31.5478 77.48 31.468C76.8969 31.2578 76.2921 31.4028 75.8329 31.8014C74.5211 32.9249 75.5122 35.5704 73.6465 36.0198C72.9178 36.1937 73.2238 37.3099 73.9526 37.136C75.1406 36.8533 75.7892 36.027 75.986 34.8529C76.088 34.244 76.0224 33.4757 76.3722 32.9321C76.9698 32.0116 77.2249 32.9684 77.7059 33.2873C78.3327 33.7004 78.9157 32.6929 78.2962 32.2871Z" fill="black"/>
<path d="M74.8855 39.3321C75.9714 38.8465 76.6637 37.6941 76.5981 36.5127C76.5617 35.7734 75.3956 35.7661 75.4321 36.5127C75.4758 37.3244 75.0385 37.9985 74.2952 38.3319C73.6101 38.6363 74.2004 39.6293 74.8855 39.3321Z" fill="black"/>
<path d="M45.712 36.6866C46.2367 36.23 46.7615 35.7734 47.2862 35.3167C47.8474 34.8239 47.0238 34.0121 46.4627 34.4977C45.9379 34.9543 45.4132 35.411 44.8885 35.8676C44.3273 36.3604 45.1508 37.1722 45.712 36.6866Z" fill="black"/>
<path d="M49.0572 34.7441C48.9333 35.9111 49.6839 36.962 50.7552 37.3752C51.4549 37.6433 51.7537 36.5271 51.0613 36.259C50.4419 36.0198 50.1503 35.3602 50.2159 34.7369C50.2524 34.4252 49.9244 34.1643 49.6329 34.157C49.2904 34.157 49.0863 34.4252 49.0499 34.7369L49.0572 34.7441Z" fill="black"/>
<path d="M53.3206 37.4694C53.6995 37.4476 54.0785 37.4259 54.4575 37.4114C54.7709 37.3969 55.0405 37.1577 55.0405 36.8316C55.0405 36.5344 54.7709 36.2372 54.4575 36.2517C54.0785 36.2735 53.6995 36.2952 53.3206 36.3097C53.0072 36.3242 52.7375 36.5634 52.7375 36.8895C52.7375 37.1867 53.0072 37.4839 53.3206 37.4694Z" fill="black"/>
<path d="M53.3133 34.4615C53.3935 34.8673 53.4809 35.2732 53.5611 35.6791C53.6267 35.9835 53.9911 36.1647 54.2753 36.085C54.596 35.998 54.7417 35.6791 54.6834 35.3747C54.6033 34.9688 54.5158 34.5629 54.4356 34.157C54.37 33.8526 54.0056 33.6714 53.7214 33.7512C53.4007 33.8381 53.255 34.157 53.3133 34.4615Z" fill="black"/>
<path d="M55.0332 32.374C55.4268 31.642 55.8203 30.9099 56.2139 30.1779C56.571 29.5183 55.5653 28.9385 55.2081 29.5908C54.8146 30.3228 54.4211 31.0549 54.0275 31.7869C53.6704 32.4465 54.6761 33.0264 55.0332 32.374Z" fill="black"/>
<path d="M57.0811 29.0907C57.3799 28.8225 57.686 28.5543 57.9848 28.2861C58.218 28.0759 58.1962 27.6773 57.9848 27.4671C57.7516 27.2352 57.3945 27.2569 57.1613 27.4671C56.8625 27.7353 56.5564 28.0035 56.2576 28.2716C56.0244 28.4818 56.0462 28.8805 56.2576 29.0907C56.4908 29.3226 56.8479 29.3009 57.0811 29.0907Z" fill="black"/>
<path d="M57.7006 36.3459C57.7225 37.0997 57.8391 37.8173 58.1233 38.5204C58.3201 38.9987 59.4643 40.4266 58.7938 40.7672C58.1233 41.1079 58.7136 42.1081 59.3841 41.7675C60.04 41.4341 60.3097 40.7165 60.1566 40.0135C60.0546 39.5206 59.7339 39.1219 59.4934 38.6943C59.0853 37.9478 58.8885 37.2012 58.8667 36.3459C58.8448 35.5994 57.686 35.5994 57.7006 36.3459Z" fill="black"/>
<path d="M56.1847 36.3315C56.192 36.6214 56.1118 36.8823 55.9078 37.0997C55.3976 37.6433 56.2212 38.4624 56.7313 37.9188C57.1394 37.4839 57.3654 36.9258 57.3508 36.3315C57.3289 35.5849 56.1629 35.5849 56.1847 36.3315Z" fill="black"/>
<path d="M61.5559 42.2024C62.1535 42.2821 62.7293 42.1589 63.2686 41.9052C63.5528 41.7747 63.6257 41.3688 63.4799 41.1152C63.3123 40.8252 62.9698 40.7745 62.6855 40.905C62.3284 41.0717 61.9495 41.0934 61.5559 41.0427C61.2425 40.9992 60.9729 41.3398 60.9729 41.6225C60.9729 41.9704 61.2425 42.1589 61.5559 42.2024Z" fill="black"/>
<path d="M48.2263 39.883C48.1024 39.3031 48.0077 38.7161 47.9494 38.129C47.6579 38.2957 47.4465 38.4624 47.155 38.6291C50.5949 40.5643 54.3482 41.8979 58.2326 42.5938V41.4776C57.0666 41.7385 56.5054 41.9414 55.66 42.1081C54.9239 42.2458 55.1936 43.362 55.9297 43.2243C56.7751 43.0649 57.5767 42.8547 58.4003 42.5938C58.9031 42.4343 58.9906 41.5863 58.393 41.4776C54.6032 40.7962 51.0249 39.5206 47.6725 37.6288C47.3226 37.4332 46.7396 37.6723 46.7979 38.129C46.8781 38.8248 46.9801 39.5061 47.1113 40.1947C47.257 40.9267 48.3721 40.615 48.2336 39.8902L48.2263 39.883Z" fill="black"/>
<path d="M47.8911 41.8907C49.5819 43.4635 51.8193 43.6085 53.9984 43.1156C54.7271 42.9489 54.4211 41.8327 53.6923 41.9994C51.9432 42.3981 50.0993 42.3546 48.7219 41.0717C48.1753 40.5643 47.3518 41.3833 47.8984 41.8907H47.8911Z" fill="black"/>
<path d="M47.8182 44.7464C49.4288 46.1453 51.4986 46.6671 53.5902 46.1888C54.319 46.0221 54.0129 44.9059 53.2841 45.0726C51.6225 45.4495 49.939 45.0363 48.649 43.9274C48.0879 43.4418 47.257 44.2535 47.8255 44.7464H47.8182Z" fill="black"/>
<path d="M46.9801 23.3647C49.079 23.3865 51.28 23.3865 52.2055 25.6551C52.4825 26.3364 53.6048 26.0393 53.3279 25.3507C52.191 22.553 49.7058 22.234 46.9801 22.2123C46.2295 22.2123 46.2295 23.3647 46.9801 23.372V23.3647Z" fill="black"/>
<path d="M46.8562 26.09C47.6214 26.09 48.4012 26.2132 49.1446 26.3944C49.9609 26.5974 50.4491 27.0395 51.0613 27.5903C51.6152 28.0904 52.4387 27.2714 51.8849 26.7713C51.1998 26.148 50.6532 25.6261 49.7422 25.3579C48.8312 25.0898 47.8109 24.9376 46.8635 24.9376C46.1128 24.9376 46.1128 26.0972 46.8635 26.0972L46.8562 26.09Z" fill="black"/>
<path d="M59.8433 26.5829C61.5413 26.6843 65.229 26.5611 65.5424 28.8008C65.6444 29.5328 66.7668 29.2211 66.6647 28.4963C66.2493 25.5464 62.1025 25.5609 59.8433 25.4304C59.0926 25.3869 59.0999 26.5466 59.8433 26.5901V26.5829Z" fill="black"/>
<path d="M59.0416 31.6057C59.6465 32.1059 60.3315 32.3813 61.1113 32.4393C61.8547 32.4972 61.8547 31.3376 61.1113 31.2796C60.6595 31.2433 60.2149 31.0694 59.8651 30.7795C59.6246 30.5838 59.2821 30.5403 59.0416 30.7795C58.8375 30.9824 58.8011 31.3955 59.0416 31.5985V31.6057Z" fill="black"/>
<path d="M47.5267 28.6993C48.168 29.3154 48.9624 29.656 49.8515 29.714C50.6022 29.7647 50.5949 28.6051 49.8515 28.5543C49.2758 28.5181 48.7584 28.2789 48.3502 27.8802C47.8109 27.3584 46.9874 28.1774 47.5267 28.6993Z" fill="black"/>
<path d="M47.8692 27.1265C48.5324 27.1555 49.1227 27.3801 49.6693 27.7498C50.2888 28.1702 50.8718 27.1627 50.2597 26.7496C49.5454 26.2712 48.7365 26.003 47.8692 25.9668C47.1186 25.9378 47.1186 27.0975 47.8692 27.1265Z" fill="black"/>
<path d="M64.7917 33.3308C65.3602 34.0556 66.0671 34.6644 66.8615 35.1283C67.5101 35.5052 68.0932 34.5049 67.4518 34.1281C66.7303 33.7077 66.1254 33.1641 65.6153 32.5045C65.4185 32.2581 64.9958 32.3015 64.7917 32.5045C64.5439 32.7437 64.6022 33.0771 64.7917 33.3235V33.3308Z" fill="black"/>
<path d="M66.8469 32.9539C67.5174 33.4467 68.4576 33.3308 69.0624 32.7944C69.6236 32.3015 68.8001 31.4825 68.2389 31.9754C67.9984 32.1928 67.6705 32.1276 67.43 31.9536C67.1749 31.7652 66.7813 31.9102 66.6356 32.1638C66.4607 32.461 66.5919 32.7727 66.8469 32.9539Z" fill="black"/>
<path d="M66.7376 31.6347C66.9562 31.5912 67.1749 31.5478 67.3935 31.5043C67.6996 31.4463 67.8818 31.0766 67.8016 30.794C67.7142 30.475 67.3935 30.3301 67.0874 30.3881C66.8688 30.4316 66.6502 30.475 66.4315 30.5185C66.1254 30.5765 65.9432 30.9462 66.0234 31.2288C66.1109 31.5478 66.4315 31.6927 66.7376 31.6347Z" fill="black"/>
<path d="M45.4059 22.7921C45.9817 20.8787 45.8505 18.813 46.5064 16.9285C47.1987 14.957 48.8021 13.4712 50.2888 12.0723C50.8354 11.5577 50.0119 10.7387 49.4653 11.2533C48.0077 12.6304 46.4918 14.0728 45.6537 15.9355C44.7281 18.0012 44.9176 20.3423 44.2763 22.4877C44.0577 23.2053 45.1873 23.5097 45.3986 22.7921H45.4059Z" fill="black"/>
<path d="M46.4408 14.3772C46.1566 13.6089 47.0676 12.9783 47.483 12.4492C47.9421 11.8694 47.1186 11.0431 46.6594 11.6302C45.9598 12.5217 44.8375 13.4059 45.3185 14.6816C45.5808 15.3702 46.7032 15.073 46.4408 14.3772Z" fill="black"/>
<path d="M53.7433 11.6882C53.7141 10.6372 53.9036 9.62971 54.3773 8.68747C54.7709 7.90468 55.558 6.65077 56.4544 6.36085C56.2649 6.31012 56.0754 6.25938 55.8859 6.20864C55.9078 6.23039 55.9369 6.25213 55.9588 6.27388C55.9078 6.08543 55.8568 5.89698 55.8058 5.70853C55.8058 5.73752 55.7912 5.76651 55.7839 5.79551C55.6163 6.52031 56.7386 6.83197 56.9062 6.09992C56.9062 6.07093 56.9208 6.04194 56.9281 6.01295C56.9718 5.81725 56.9281 5.59256 56.775 5.4476C56.7532 5.42586 56.724 5.40411 56.7022 5.38237C56.5564 5.24466 56.3378 5.16493 56.1337 5.23016C53.7141 6.01295 52.5043 9.40502 52.5699 11.6737C52.5918 12.4202 53.7506 12.4202 53.736 11.6737L53.7433 11.6882Z" fill="black"/>
<path d="M56.6949 12.0651C56.8698 11.4345 57.2561 10.9271 57.8245 10.601C58.4731 10.2241 57.8828 9.22382 57.2342 9.60072C56.4107 10.0791 55.8203 10.8474 55.5653 11.7606C55.3685 12.4782 56.4908 12.7899 56.6876 12.0651H56.6949Z" fill="black"/>
<path d="M58.4367 12.4057C58.7282 11.6229 59.3039 11.0068 60.04 10.6227C60.7032 10.2748 60.1129 9.27456 59.4497 9.62247C58.4367 10.1516 57.7006 11.0358 57.3144 12.1013C57.0593 12.8044 58.1816 13.1015 58.4367 12.4057Z" fill="black"/>
<path d="M59.1655 12.8768L61.0166 11.3692C61.2571 11.1735 61.2207 10.7532 61.0166 10.5502C60.7761 10.311 60.4409 10.3545 60.1931 10.5502C59.5736 11.0503 58.9614 11.5577 58.3419 12.0578C58.1014 12.2535 58.1379 12.6739 58.3419 12.8768C58.5824 13.116 58.9177 13.0725 59.1655 12.8768Z" fill="black"/>
<path d="M60.5137 13.261C61.9349 12.1738 63.458 11.246 65.076 10.4777C65.7537 10.1588 65.1634 9.15859 64.4856 9.47751C62.8677 10.2458 61.3446 11.1735 59.9234 12.2607C59.3404 12.7101 59.9234 13.7176 60.5137 13.261Z" fill="black"/>
<path d="M64.5585 13.8698C66.0088 11.1011 71.6059 13.5219 73.9526 13.7176C74.696 13.7828 74.696 12.6231 73.9526 12.5579C71.0958 12.3187 65.4039 9.74568 63.5528 13.2827C63.2103 13.9423 64.2087 14.5294 64.5585 13.8698Z" fill="black"/>
<path d="M64.799 15.2397C66.2275 14.9788 67.6559 14.928 69.0989 15.0585C69.8423 15.1237 69.8423 13.964 69.0989 13.8988C67.5466 13.7611 66.0234 13.8481 64.4929 14.1235C63.7569 14.254 64.0702 15.3702 64.799 15.2397Z" fill="black"/>
<path d="M71.0083 19.5015C71.81 19.6682 72.6117 19.7335 73.4279 19.6755C74.1713 19.6247 74.1786 18.4651 73.4279 18.5158C72.7137 18.5665 72.0213 18.5303 71.3217 18.3781C70.5929 18.2259 70.2795 19.3348 71.0156 19.4943L71.0083 19.5015Z" fill="black"/>
<path d="M70.7387 20.3713C71.4747 20.5742 72.2108 20.6032 72.9615 20.48C73.2749 20.4293 73.4425 20.0451 73.3696 19.7697C73.2749 19.4435 72.9688 19.3203 72.6554 19.3638C72.1161 19.4508 71.5768 19.4001 71.052 19.2551C70.3305 19.0522 70.0244 20.1684 70.7459 20.3713H70.7387Z" fill="black"/>
<path d="M71.2124 22.263C71.7298 22.4442 72.2764 22.524 72.823 22.4877C73.5664 22.4442 73.5737 21.2845 72.823 21.328C72.3712 21.357 71.9557 21.2918 71.5258 21.1396C71.227 21.0309 70.8917 21.2556 70.8116 21.5455C70.7241 21.8644 70.9209 22.1543 71.2197 22.2558L71.2124 22.263Z" fill="black"/>
<path d="M71.329 32.0551C71.8901 32.5045 72.6627 32.519 73.202 32.0189C73.4279 31.8014 73.4206 31.4173 73.202 31.1998C72.9761 30.9752 72.6116 30.9824 72.3784 31.1998C72.342 31.2361 72.3056 31.2433 72.2764 31.2506C72.2473 31.2506 72.2181 31.2506 72.1962 31.2506C72.2618 31.2578 72.2546 31.2578 72.189 31.2506C72.1234 31.2288 72.1161 31.2288 72.1744 31.2506C72.1161 31.2143 72.1088 31.2143 72.1598 31.2506C71.9193 31.0549 71.5768 31.0114 71.3363 31.2506C71.1322 31.4535 71.0885 31.8739 71.3363 32.0696L71.329 32.0551Z" fill="black"/>
<path d="M72.291 31.2941C72.6627 30.9389 72.9177 30.562 73.0125 30.0474C73.0489 29.859 73.0416 28.6051 72.8594 28.5978C73.3404 28.5978 73.5299 28.1122 73.3623 27.728C73.1801 27.3149 72.9979 26.0175 73.3186 25.5899C73.6975 25.0898 74.9073 25.2565 75.4831 25.2275C76.3576 25.184 77.0208 25.126 77.7278 24.5824C78.3181 24.1258 77.4873 23.314 76.9042 23.7634C75.7236 24.6766 73.3696 23.459 72.4003 24.8288C71.7517 25.7421 71.9485 27.3656 72.3566 28.3151C72.5242 28.0252 72.6918 27.7353 72.8594 27.4454C72.393 27.4454 72.0724 27.5541 71.8319 27.9962C71.3581 28.8515 72.2983 29.6923 71.4747 30.4823C70.9354 31.0042 71.759 31.8159 72.2983 31.3013L72.291 31.2941Z" fill="black"/>
<path d="M79.0396 29.3226C80.0235 26.996 81.4592 24.5027 81.8381 21.9876C82.013 20.8062 81.8163 19.6247 81.8381 18.4433C81.86 17.2691 82.2317 16.0732 82.1078 14.899C81.8892 12.7609 79.9724 11.5794 78.8647 9.90514C77.4508 7.76697 76.2483 6.17965 74.1494 4.62133C72.189 3.16447 69.9661 2.38893 67.5903 1.83808C66.3295 1.54816 65.0541 1.37421 63.7641 1.53367C62.1389 1.72936 60.9802 2.11351 59.4643 1.27274C55.3175 -1.01764 52.1618 2.20048 49.8734 5.48384C49.4434 6.09992 50.4564 6.67977 50.8791 6.07093C52.242 4.11396 53.9255 1.71487 56.571 1.56991C58.3711 1.47568 59.4497 3.09924 61.2207 3.10649C62.1171 3.10649 63.0135 2.80932 63.8953 2.70785C65.3019 2.54114 66.6501 2.78033 68.013 3.14998C70.5856 3.84579 72.67 4.84602 74.7324 6.5493C76.3868 7.91193 77.1666 9.7022 78.4566 11.3402C78.923 11.9273 79.4842 12.4275 79.9652 13.0073C81.051 14.2974 80.9709 15.3919 80.796 17.0227C80.5701 19.0956 81.0219 21.1831 80.3441 23.198C79.6736 25.1767 78.7408 27.0975 77.9245 29.0254C77.633 29.714 78.7626 30.0112 79.0469 29.3299L79.0396 29.3226Z" fill="black"/>
<path d="M47.7089 10.4777C48.0004 9.49925 48.5834 8.62949 49.4143 8.0134C50.0046 7.57127 49.4288 6.57105 48.8239 7.01318C47.7453 7.81771 46.9728 8.87592 46.5866 10.1661C46.3752 10.8836 47.4975 11.188 47.7089 10.4705V10.4777Z" fill="black"/>
<path d="M59.1655 29.2791C60.7542 29.3516 62.2264 29.7865 63.5965 30.5765C64.2451 30.9534 64.8355 29.9532 64.1868 29.5763C62.6418 28.6848 60.951 28.1992 59.1655 28.1194C58.4148 28.0832 58.4148 29.2429 59.1655 29.2791Z" fill="black"/>
<path d="M59.3695 29.9097C60.6449 29.6053 61.9859 30.0982 62.7293 31.1781C63.152 31.7869 64.1577 31.2143 63.735 30.591C62.6928 29.0689 60.8636 28.3586 59.0634 28.7935C58.3347 28.9675 58.6408 30.0837 59.3695 29.9097Z" fill="black"/>
<path d="M60.6959 30.7287C61.0166 30.7287 61.33 30.8229 61.5851 31.0259C61.8256 31.2216 62.1681 31.2651 62.4086 31.0259C62.6345 30.8012 62.6272 30.4316 62.4086 30.2069C62.015 29.801 61.5705 29.4386 61.0895 29.1342C60.4554 28.7283 59.8724 29.7357 60.4992 30.1344C60.9 30.3881 61.2571 30.6852 61.5851 31.0259L62.4086 30.2069C61.913 29.801 61.3446 29.5763 60.7032 29.569C59.9526 29.5618 59.9526 30.7142 60.7032 30.7287H60.6959Z" fill="black"/>
<path d="M43.7297 23.7779C43.6131 24.4229 43.409 25.0535 43.1248 25.6479L43.7297 23.7779Z" fill="black"/>
<path d="M42.6802 23.4879C42.5782 24.046 42.4106 24.5824 42.192 25.1043L42.3013 24.8433C42.2648 24.9303 42.2284 25.01 42.1847 25.097C42.1045 25.2202 42.0608 25.3579 42.0535 25.5029C42.0243 25.6479 42.0243 25.7928 42.0753 25.9378C42.1482 26.1915 42.3377 26.4669 42.5782 26.5901C42.8333 26.7206 43.1394 26.793 43.4236 26.6988C43.6787 26.6191 43.9556 26.4524 44.0795 26.1987C44.4002 25.5174 44.6553 24.8071 44.7937 24.0678C44.8375 23.9228 44.8447 23.7779 44.8156 23.6329C44.8156 23.4879 44.7646 23.3502 44.6844 23.227C44.5532 23.0023 44.2909 22.7849 44.0285 22.7269C43.7516 22.6617 43.4382 22.6762 43.1831 22.8356C42.9572 22.9806 42.7313 23.2125 42.6802 23.4879Z" fill="black"/>
<path d="M42.8989 28.3876C43.5839 29.4603 44.6407 30.2648 45.8359 30.7142C46.3461 30.9099 46.8854 31.0404 47.4247 31.1056C48.598 31.2361 49.8588 31.0331 50.7552 30.2793C54.5012 27.1265 45.5079 23.0241 42.8333 24.7853C41.5725 25.6189 42.2357 27.3584 42.8989 28.3876Z" fill="black"/>
<path d="M42.4252 28.663C43.3799 30.1199 44.903 31.1419 46.6157 31.5188C47.4903 31.7145 48.394 31.7435 49.2758 31.5623C49.6912 31.4753 50.092 31.3303 50.4637 31.1274C50.7844 30.9534 51.3018 30.6925 51.3018 30.2721L51.1415 30.6562C51.965 29.9532 52.446 28.9095 52.0671 27.844C51.6881 26.7786 50.7479 25.9885 49.8151 25.4087C48.7365 24.7346 47.4975 24.249 46.2513 23.9953C45.1581 23.7706 43.9338 23.6691 42.8916 24.1403C40.9822 24.9955 41.5506 27.2569 42.4324 28.6558C42.8041 29.2501 43.7516 28.6993 43.3799 28.1049C43.0373 27.5541 42.7094 26.9235 42.6802 26.2639C42.6657 25.974 42.7094 25.6841 42.8989 25.4522C42.979 25.3507 43.0811 25.2782 43.1904 25.2057C43.2268 25.184 43.4309 25.0825 43.3653 25.1043C44.1524 24.7708 45.1071 24.8651 45.9671 25.039C47.0311 25.2565 48.066 25.6406 49.0061 26.1842C49.7932 26.6408 50.5876 27.2279 50.9812 28.0252C51.1269 28.3296 51.1634 28.663 51.0686 28.9819C51.0249 29.1197 50.9083 29.3299 50.799 29.4676C50.6022 29.714 50.2305 29.9097 50.2305 30.2576L50.3908 29.8735C49.3195 30.736 47.7526 30.707 46.4918 30.3373C45.231 29.9677 44.1087 29.1849 43.3872 28.0904C43.0009 27.5034 42.0535 28.0542 42.4397 28.6413L42.4252 28.663Z" fill="black"/>
<path d="M56.6147 33.9758C57.4601 34.9253 58.6262 35.5632 59.8724 35.8313C60.4044 35.9473 60.9583 35.9908 61.5049 35.969C62.6782 35.9183 63.9026 35.5269 64.6678 34.6427C67.8818 30.9607 58.3565 28.2716 55.9952 30.4243C54.8802 31.439 55.8058 33.0553 56.6147 33.9758Z" fill="black"/>
<path d="M56.2285 34.36C58.0577 36.3749 61.3154 37.165 63.8152 35.9546C65.2582 35.2587 66.4169 33.5772 65.5788 32.0116C64.8865 30.7142 63.2831 30.0112 61.9422 29.598C60.4263 29.1342 58.6918 28.9095 57.1249 29.2864C56.2795 29.4893 55.4341 29.9459 55.0915 30.7795C54.5668 32.0479 55.4195 33.4177 56.2285 34.3527C56.6876 34.8818 57.4601 34.1136 57.001 33.5844C56.4908 33.0046 55.7474 31.9754 56.1046 31.1636C56.3232 30.6635 56.8698 30.4678 57.3799 30.3446C58.5824 30.0474 59.9234 30.2069 61.1186 30.504C62.3139 30.8012 63.5601 31.2651 64.369 32.1783C64.6387 32.4827 64.7917 32.8307 64.7845 33.2003C64.7845 33.3525 64.7189 33.57 64.6314 33.7439C64.4784 34.0411 64.267 34.302 64.0192 34.5267C63.0572 35.382 61.5778 35.5487 60.3534 35.3602C59.0634 35.1573 57.8901 34.5484 57.0155 33.5844C56.5418 33.0626 55.7693 33.8381 56.243 34.3527L56.2285 34.36Z" fill="black"/>
<path d="M50.5658 28.5253C51.6225 28.5688 52.6865 28.6558 53.6996 28.9602C54.7126 29.2574 55.6819 29.7937 56.3523 30.5983" fill="black"/>
<path d="M50.5658 29.6125C51.1123 29.6343 51.6589 29.6633 52.1982 29.743C52.0889 29.7285 52.0962 29.7285 52.2347 29.743C52.3076 29.7575 52.3804 29.7647 52.4533 29.7792C52.5991 29.8082 52.7375 29.83 52.8833 29.8662C53.1238 29.9169 53.357 29.9822 53.5902 30.0619C53.7068 30.0981 53.8234 30.1416 53.9401 30.1851C54.2243 30.2938 53.7506 30.0909 54.0202 30.2214C54.2461 30.3301 54.4648 30.4388 54.6761 30.5765C54.7563 30.6273 54.8292 30.678 54.9093 30.7287C55.0114 30.8012 55.0114 30.8012 54.9093 30.7287C54.9604 30.765 55.0041 30.8085 55.0551 30.8447C55.2446 31.0042 55.4122 31.1854 55.5725 31.3738C55.9442 31.8087 56.7386 31.7797 57.1176 31.3738C57.5476 30.9099 57.5111 30.3011 57.1176 29.8372C55.507 27.9455 52.9052 27.5541 50.5585 27.4454C49.99 27.4164 49.4361 27.9672 49.4653 28.5326C49.4944 29.1414 49.9463 29.5908 50.5585 29.6198L50.5658 29.6125Z" fill="black"/>
<path d="M66.3003 33.1351C68.6689 32.7437 71.0229 32.2798 73.3623 31.7435L66.3003 33.1351Z" fill="black"/>
<path d="M66.5918 34.186C68.9604 33.7946 71.3144 33.3308 73.6538 32.7944C74.215 32.664 74.594 31.9971 74.4191 31.4535C74.2296 30.8737 73.6757 30.5548 73.0708 30.6925C70.7314 31.2288 68.3774 31.6927 66.0088 32.0841C65.4404 32.1783 65.076 32.9031 65.2436 33.425C65.4404 34.0338 65.9797 34.2875 66.5918 34.186Z" fill="black"/>
<path d="M10.2791 73.4584H16.7403V77.7903H27.0194V83.1331H0V77.7903H10.2791V73.4584ZM7.66529 72.592C6.62759 72.592 5.68289 72.3946 4.83119 71.9999C3.97949 71.6052 3.25016 71.071 2.6432 70.3971C2.03625 69.7233 1.56634 68.9242 1.2335 68.0001C0.900647 67.0759 0.734223 66.0844 0.734223 65.0255C0.734223 63.9666 0.900647 62.975 1.2335 62.0509C1.56634 61.1267 2.03625 60.3277 2.6432 59.6538C3.25016 58.98 3.97949 58.4457 4.83119 58.051C5.68289 57.6563 6.62759 57.459 7.66529 57.459H19.3541C20.3918 57.459 21.3365 57.6563 22.1882 58.051C23.0399 58.4457 23.7693 58.98 24.3762 59.6538C24.9832 60.3277 25.4531 61.1267 25.7859 62.0509C26.1188 62.975 26.2852 63.9666 26.2852 65.0255C26.2852 66.0844 26.1188 67.0759 25.7859 68.0001C25.4531 68.9242 24.9832 69.7233 24.3762 70.3971C23.7693 71.071 23.0399 71.6052 22.1882 71.9999C21.3365 72.3946 20.3918 72.592 19.3541 72.592H7.66529ZM17.4451 67.3936C18.1304 67.3936 18.7227 67.1866 19.222 66.7727C19.7212 66.3588 19.9709 65.7764 19.9709 65.0255C19.9709 64.2746 19.7212 63.6922 19.222 63.2783C18.7227 62.8643 18.1304 62.6573 17.4451 62.6573H9.57427C8.889 62.6573 8.29672 62.8643 7.79745 63.2783C7.29818 63.6922 7.04854 64.2746 7.04854 65.0255C7.04854 65.7764 7.29818 66.3588 7.79745 66.7727C8.29672 67.1866 8.889 67.3936 9.57427 67.3936H17.4451Z" fill="black"/>
<path d="M50.0447 68.1397H32.4918C32.1492 68.1397 31.8555 68.0145 31.6205 67.7691L30.3038 66.4069C30.0689 66.1614 29.9514 65.8774 29.9514 65.5501V64.0965L28.9871 61.5792H35.1203V65.2517H50.0398V68.1397H50.0447ZM50.7495 72.2743H29.134V69.1553H50.7495V72.2743ZM50.2796 80.2692V83.0416H32.4918C32.1492 83.0416 31.8555 82.9165 31.6205 82.671L30.3038 81.3088C30.0689 81.0634 29.9514 80.7794 29.9514 80.4521V76.8469H44.7534V76.1057H29.9514V73.3332H49.9223V79.5039H35.1203V80.2644H50.2747L50.2796 80.2692Z" fill="black"/>
<path d="M63.9362 81.5639H52.3942V78.3583H63.9362V81.5639ZM52.6242 70.2335C52.6242 69.6077 52.7417 69.0398 52.9767 68.5247C53.2116 68.0097 53.5591 67.5717 54.0144 67.2059C54.4696 66.8401 55.0325 66.5609 55.6982 66.3636C56.3639 66.1662 57.1275 66.07 57.9988 66.07C58.87 66.07 59.6189 66.1662 60.2895 66.3636C60.9601 66.5609 61.523 66.8401 61.9831 67.2059C62.4432 67.5717 62.7859 68.0097 63.0208 68.5247C63.2558 69.0398 63.3733 69.6077 63.3733 70.2335V71.8603C63.3733 72.4861 63.2558 73.054 63.0208 73.5691C62.7859 74.0841 62.4384 74.5221 61.9831 74.8879C61.523 75.2537 60.9601 75.5329 60.2895 75.7302C59.6189 75.9276 58.8553 76.0238 57.9988 76.0238C57.1422 76.0238 56.3639 75.9276 55.6982 75.7302C55.0325 75.5329 54.4745 75.2537 54.0144 74.8879C53.5543 74.5221 53.2116 74.0841 52.9767 73.5691C52.7417 73.054 52.6242 72.4861 52.6242 71.8603V70.2335ZM56.4128 71.6197C56.4128 71.9999 56.5646 72.2935 56.8729 72.5053C57.1764 72.7123 57.5533 72.8182 57.9988 72.8182C58.4442 72.8182 58.8211 72.7123 59.1246 72.5053C59.428 72.2984 59.5847 72.0047 59.5847 71.6197V70.4741C59.5847 70.0939 59.4329 69.8003 59.1246 69.5885C58.8211 69.3815 58.4442 69.2756 57.9988 69.2756C57.5533 69.2756 57.1764 69.3815 56.8729 69.5885C56.5695 69.7955 56.4128 70.0891 56.4128 70.4741V71.6197ZM63.5691 65.9881H68.3464V82.0838H64.4697V67.8749L63.5691 65.9881Z" fill="black"/>
<path d="M81.7142 64.0965C81.8219 64.2361 81.9051 64.3757 81.9589 64.5105C82.0127 64.65 82.0274 64.8041 81.9932 64.9725L80.9604 74.0311L75.8404 74.3296L76.7802 66.1951H70.8379L70.133 61.9209H79.4821C79.8443 61.9209 80.1331 62.0605 80.3534 62.3348L81.7142 64.0917V64.0965ZM91.7486 78.9985V83.0416H74.3621C74.0195 83.0416 73.7258 82.9165 73.4909 82.671L72.1742 81.3088C71.9392 81.0634 71.8217 80.7794 71.8217 80.4521V74.9986H77.0592V78.9937H91.7436L91.7486 78.9985ZM82.6784 66.3154H86.3447V64.0965L85.1454 61.5792H91.5136V76.9432H86.3447V70.3586H82.2085L82.6784 66.3154Z" fill="black"/>
<path d="M93.9806 77.155V71.8122H121V77.155H110.721V83.9995H104.26V77.155H93.9806ZM95.0379 70.3682L105.023 57.5745H112.542L109.194 61.8776L113.775 62.3108L119.913 70.3682H112.248L107.49 64.0436L102.556 70.3682H95.0379Z" fill="black"/>
</svg>
