<svg width="22" height="22" viewBox="0 0 22 22" fill="none" xmlns="http://www.w3.org/2000/svg">
<g id="Image" opacity="0.8">
<mask id="mask0_408_1582" style="mask-type:alpha" maskUnits="userSpaceOnUse" x="0" y="1" width="22" height="20">
<g id="Shape">
<path d="M7.87998 7.99027C7.87998 9.25589 6.89505 10.2819 5.68007 10.2819C4.46509 10.2819 3.48016 9.25589 3.48016 7.99027C3.48016 6.72465 4.46509 5.69866 5.68007 5.69866C6.89505 5.69866 7.87998 6.72465 7.87998 7.99027Z" fill="#B4DBFF"/>
<path fill-rule="evenodd" clip-rule="evenodd" d="M0 4.12559C0 2.85997 0.984935 1.83398 2.19991 1.83398H19.7992C21.0142 1.83398 21.9991 2.85997 21.9991 4.12559V17.8753C21.9991 19.1409 21.0142 20.1669 19.7992 20.1669H18.3471C18.3423 20.1669 18.3374 20.1669 18.3326 20.1669H2.70129C2.69715 20.1669 2.69301 20.1669 2.68887 20.1669H2.19991C0.984936 20.1669 0 19.1409 0 17.8753V4.12559ZM2.19991 3.55269H19.7992C20.103 3.55269 20.3492 3.80919 20.3492 4.12559V11.2664L15.5696 6.41723L7.4381 14.667L5.04277 12.2369L1.64994 15.6791V4.12559C1.64994 3.80919 1.89617 3.55269 2.19991 3.55269Z" fill="#B4DBFF"/>
</g>
</mask>
<g mask="url(#mask0_408_1582)">
<rect id="Fill" width="21.9991" height="21.9995" fill="#7A7A7A"/>
</g>
</g>
</svg>
