<svg width="13" height="10" viewBox="0 0 13 10" fill="none" xmlns="http://www.w3.org/2000/svg">
<path d="M10.2959 2.375C10.2959 2.97591 10.0843 3.48796 9.66113 3.91113C9.23796 4.33431 8.72591 4.5459 8.125 4.5459C7.52409 4.5459 7.01204 4.33431 6.58887 3.91113C6.16569 3.48796 5.9541 2.97591 5.9541 2.375C5.9541 1.77409 6.16569 1.26204 6.58887 0.838867C7.01204 0.41569 7.52409 0.204102 8.125 0.204102C8.72591 0.204102 9.23796 0.41569 9.66113 0.838867C10.0843 1.26204 10.2959 1.77409 10.2959 2.375ZM8.125 5.0791C7.52409 5.0791 6.96126 5.18066 6.43652 5.38379C5.91178 5.57845 5.45052 5.86621 5.05273 6.24707C4.66341 6.61947 4.35449 7.07227 4.12598 7.60547C3.90592 8.13867 3.7959 8.74382 3.7959 9.4209H12.4541C12.4541 8.74382 12.3398 8.13867 12.1113 7.60547C11.8913 7.07227 11.5824 6.61947 11.1846 6.24707C10.7952 5.86621 10.3382 5.57845 9.81348 5.38379C9.28874 5.18066 8.72591 5.0791 8.125 5.0791ZM4.875 4H3.25V2.375H2.1709V4H0.545898V5.0791H2.1709V6.7041H3.25V5.0791H4.875V4Z" fill="white"/>
</svg>
