<svg width="20" height="19" viewBox="0 0 20 19" fill="none" xmlns="http://www.w3.org/2000/svg">
<path d="M17.4414 8.83984C17.3503 7.96745 17.1159 7.15365 16.7383 6.39844C16.3607 5.63021 15.8789 4.95312 15.293 4.36719C14.707 3.78125 14.0299 3.29948 13.2617 2.92188C12.5065 2.54427 11.6992 2.3099 10.8398 2.21875V0.5H9.16016V2.21875C8.30078 2.3099 7.48698 2.54427 6.71875 2.92188C5.96354 3.29948 5.29297 3.78125 4.70703 4.36719C4.12109 4.95312 3.63932 5.63021 3.26172 6.39844C2.88411 7.15365 2.64974 7.96745 2.55859 8.83984H0.839844V10.5H2.55859C2.64974 11.3724 2.88411 12.1927 3.26172 12.9609C3.63932 13.7161 4.12109 14.3867 4.70703 14.9727C5.29297 15.5586 5.96354 16.0404 6.71875 16.418C7.48698 16.7826 8.30078 17.0169 9.16016 17.1211V18.8398H10.8398V17.1211C11.6992 17.0169 12.5065 16.7826 13.2617 16.418C14.0299 16.0404 14.707 15.5586 15.293 14.9727C15.8789 14.3867 16.3607 13.7161 16.7383 12.9609C17.1159 12.1927 17.3503 11.3724 17.4414 10.5H19.1602V8.83984H17.4414ZM10 15.5C9.19271 15.5 8.43099 15.3503 7.71484 15.0508C7.01172 14.7383 6.39323 14.3216 5.85938 13.8008C5.33854 13.2669 4.92188 12.6484 4.60938 11.9453C4.3099 11.2292 4.16016 10.4674 4.16016 9.66016C4.16016 8.85286 4.3099 8.09766 4.60938 7.39453C4.92188 6.69141 5.33854 6.07943 5.85938 5.55859C6.39323 5.02474 7.01172 4.60807 7.71484 4.30859C8.43099 3.99609 9.19271 3.83984 10 3.83984C10.8073 3.83984 11.5625 3.99609 12.2656 4.30859C12.9818 4.60807 13.6003 5.02474 14.1211 5.55859C14.6549 6.07943 15.0716 6.69141 15.3711 7.39453C15.6836 8.09766 15.8398 8.85286 15.8398 9.66016C15.8398 10.4674 15.6836 11.2292 15.3711 11.9453C15.0716 12.6484 14.6549 13.2669 14.1211 13.8008C13.6003 14.3216 12.9818 14.7383 12.2656 15.0508C11.5625 15.3503 10.8073 15.5 10 15.5ZM13.3398 9.66016C13.3398 10.5846 13.0143 11.3724 12.3633 12.0234C11.7122 12.6745 10.9245 13 10 13C9.07552 13 8.28776 12.6745 7.63672 12.0234C6.98568 11.3724 6.66016 10.5846 6.66016 9.66016C6.66016 8.7487 6.98568 7.96745 7.63672 7.31641C8.28776 6.66536 9.07552 6.33984 10 6.33984C10.9245 6.33984 11.7122 6.66536 12.3633 7.31641C13.0143 7.96745 13.3398 8.7487 13.3398 9.66016Z" fill="#2F3036"/>
</svg>
