<svg width="20" height="19" viewBox="0 0 20 19" fill="none" xmlns="http://www.w3.org/2000/svg">
<path d="M10 0.173828C8.73958 0.173828 7.55078 0.417318 6.43359 0.904297C5.31641 1.37695 4.34245 2.02865 3.51172 2.85938C2.68099 3.6901 2.02214 4.66406 1.53516 5.78125C1.0625 6.88411 0.826172 8.06576 0.826172 9.32617C0.826172 10.6009 1.0625 11.7969 1.53516 12.9141C2.02214 14.0169 2.68099 14.9837 3.51172 15.8145C4.34245 16.6452 5.31641 17.304 6.43359 17.791C7.55078 18.2637 8.73958 18.5 10 18.5C11.2604 18.5 12.4492 18.2637 13.5664 17.791C14.6836 17.304 15.6576 16.6452 16.4883 15.8145C17.319 14.9837 17.9707 14.0169 18.4434 12.9141C18.9303 11.7969 19.1738 10.6009 19.1738 9.32617C19.1738 8.06576 18.9303 6.88411 18.4434 5.78125C17.9707 4.66406 17.319 3.6901 16.4883 2.85938C15.6576 2.02865 14.6836 1.37695 13.5664 0.904297C12.4492 0.417318 11.2604 0.173828 10 0.173828ZM14.2754 12.1836L12.8359 13.623L10 10.7656L7.16406 13.623L5.72461 12.1836L8.56055 9.32617L5.72461 6.49023L7.16406 5.05078L10 7.88672L12.8359 5.05078L14.2754 6.49023L11.4395 9.32617L14.2754 12.1836Z" fill="black"/>
</svg>
