<svg width="16" height="16" viewBox="0 0 16 16" fill="none" xmlns="http://www.w3.org/2000/svg">
<g id="Eye Invisible">
<mask id="mask0_386_1116" style="mask-type:alpha" maskUnits="userSpaceOnUse" x="0" y="1" width="16" height="14">
<path id="Union" fill-rule="evenodd" clip-rule="evenodd" d="M15.1463 2.58665C15.4717 2.2612 15.4717 1.73357 15.1463 1.40813C14.8208 1.0827 14.2932 1.08271 13.9678 1.40815L1.96803 13.4081C1.6426 13.7336 1.6426 14.2612 1.96804 14.5867C2.29348 14.9121 2.82112 14.9121 3.14655 14.5866L4.87279 12.8604C6.82003 13.6203 9.04857 13.6759 11.1491 12.8502C13.3673 11.9775 15.1273 10.2248 16 7.9993C15.4301 6.55859 14.4966 5.32928 13.3285 4.40445L15.1463 2.58665ZM11.2876 6.44539L10.1431 7.58996C10.1687 7.72394 10.1818 7.86094 10.1818 7.9993C10.1818 8.57796 9.95195 9.13291 9.54278 9.54208C9.13361 9.95125 8.57865 10.1811 8 10.1811C7.86166 10.1811 7.72467 10.168 7.5907 10.1424L6.44616 11.287C6.92746 11.5144 7.45748 11.6357 8 11.6357C8.96442 11.6357 9.88935 11.2526 10.5713 10.5706C11.2532 9.88865 11.6364 8.96373 11.6364 7.9993C11.6364 7.45676 11.5151 6.92671 11.2876 6.44539ZM8 2.54476C8.92698 2.54476 9.82894 2.69483 10.6786 2.97529L9.11563 4.5383C8.75841 4.42314 8.38231 4.36294 8 4.36294C7.03558 4.36294 6.11065 4.74606 5.4287 5.42801C4.74675 6.10996 4.36364 7.03488 4.36364 7.9993C4.36364 8.38164 4.42385 8.75777 4.53902 9.11501L2.33337 11.3207C1.33244 10.4453 0.520477 9.32336 0 7.9993C1.29455 4.72658 4.46545 2.54476 8 2.54476ZM6.45722 6.45653C6.82609 6.08765 7.31345 5.8645 7.82983 5.82413L5.82482 7.82918C5.86519 7.31278 6.08834 6.82541 6.45722 6.45653Z" fill="#006FFD"/>
</mask>
<g mask="url(#mask0_386_1116)">
<rect id="Fill" width="16" height="16" fill="#D0D0D0"/>
</g>
</g>
</svg>
