<svg width="16" height="20" viewBox="0 0 16 20" fill="none" xmlns="http://www.w3.org/2000/svg">
<path d="M8 0.0078125C7.03125 0.0078125 6.11719 0.195312 5.25781 0.570312C4.41406 0.929688 3.67188 1.42969 3.03125 2.07031C2.40625 2.69531 1.90625 3.42969 1.53125 4.27344C1.17188 5.11719 0.992188 6.02344 0.992188 6.99219C0.992188 8.30469 1.35938 9.72656 2.09375 11.2578C2.82812 12.7734 3.63281 14.1797 4.50781 15.4766C5.38281 16.7734 6.17969 17.8516 6.89844 18.7109C7.63281 19.5703 8 20 8 20C8 20 8.35938 19.5703 9.07812 18.7109C9.8125 17.8516 10.6172 16.7734 11.4922 15.4766C12.3672 14.1797 13.1719 12.7734 13.9062 11.2578C14.6406 9.72656 15.0078 8.30469 15.0078 6.99219C15.0078 6.02344 14.8203 5.11719 14.4453 4.27344C14.0859 3.42969 13.5859 2.69531 12.9453 2.07031C12.3203 1.42969 11.5781 0.929688 10.7188 0.570312C9.875 0.195312 8.96875 0.0078125 8 0.0078125ZM8 9.99219C7.17188 9.99219 6.46094 9.70312 5.86719 9.125C5.28906 8.53125 5 7.82031 5 6.99219C5 6.16406 5.28906 5.46094 5.86719 4.88281C6.46094 4.28906 7.17188 3.99219 8 3.99219C8.82812 3.99219 9.53125 4.28906 10.1094 4.88281C10.7031 5.46094 11 6.16406 11 6.99219C11 7.82031 10.7031 8.53125 10.1094 9.125C9.53125 9.70312 8.82812 9.99219 8 9.99219Z" fill="white"/>
</svg>
