<svg width="22" height="17" viewBox="0 0 22 17" fill="none" xmlns="http://www.w3.org/2000/svg">
<path d="M20 0H2C1.71875 0 1.47656 0.101563 1.27344 0.304688C1.08594 0.492188 0.992188 0.726562 0.992188 1.00781V15C0.992188 15.2812 1.08594 15.5234 1.27344 15.7266C1.47656 15.9141 1.71875 16.0078 2 16.0078H20C20.2812 16.0078 20.5156 15.9141 20.7031 15.7266C20.9062 15.5234 21.0078 15.2812 21.0078 15V1.00781C21.0078 0.726562 20.9062 0.492188 20.7031 0.304688C20.5156 0.101563 20.2812 0 20 0ZM18.9922 13.9922L14.5156 7.99219L13.0625 9.9375L9.5 4.99219L3.00781 13.9922V1.99219H18.9922V13.9922Z" fill="#2F2F2F"/>
</svg>
